<svg width="437" height="437" viewBox="0 0 437 437" fill="none" xmlns="http://www.w3.org/2000/svg">
<path d="M172.4 177.627C172.263 174.685 174.685 172.263 177.627 172.4L185.23 172.753C189.523 172.953 193.539 170.634 195.513 166.817L199.008 160.055C200.36 157.439 203.669 156.553 206.148 158.142L212.556 162.25C216.174 164.569 220.811 164.569 224.429 162.25L230.837 158.142C233.316 156.553 236.625 157.439 237.977 160.055L241.472 166.817C243.446 170.634 247.462 172.953 251.755 172.753L259.358 172.4C262.3 172.263 264.722 174.685 264.585 177.627L264.231 185.23C264.032 189.523 266.35 193.539 270.168 195.513L276.93 199.008C279.545 200.36 280.432 203.669 278.843 206.148L274.735 212.556C272.415 216.174 272.415 220.811 274.735 224.429L278.843 230.837C280.432 233.316 279.545 236.625 276.93 237.977L270.168 241.472C266.35 243.446 264.032 247.462 264.231 251.755L264.585 259.358C264.722 262.3 262.3 264.722 259.358 264.585L251.755 264.231C247.462 264.032 243.446 266.35 241.472 270.168L237.977 276.93C236.625 279.545 233.316 280.432 230.837 278.843L224.429 274.735C220.811 272.415 216.174 272.415 212.556 274.735L206.148 278.843C203.669 280.432 200.36 279.545 199.008 276.93L195.513 270.168C193.539 266.35 189.523 264.032 185.23 264.231L177.627 264.585C174.685 264.722 172.263 262.3 172.4 259.358L172.753 251.755C172.953 247.462 170.634 243.446 166.817 241.472L160.055 237.977C157.439 236.625 156.553 233.316 158.142 230.837L162.25 224.429C164.569 220.811 164.569 216.174 162.25 212.556L158.142 206.148C156.553 203.669 157.439 200.36 160.055 199.008L166.817 195.513C170.634 193.539 172.953 189.523 172.753 185.23L172.4 177.627Z" fill="white" stroke="#F21B3F" stroke-width="6"/>
<path d="M62.1967 207.306L59.4782 206.038L62.1967 207.306L69.0938 192.528C69.4529 191.758 70.5471 191.758 70.9062 192.528L77.8033 207.306C78.4987 208.796 79.6963 209.994 81.1861 210.689L82.4549 207.971L81.1861 210.689L95.9647 217.586C96.7341 217.945 96.7341 219.039 95.9647 219.399L81.1861 226.296C79.6962 226.991 78.4987 228.189 77.8033 229.679L80.5218 230.947L77.8033 229.679L70.9062 244.457C70.5471 245.227 69.4529 245.227 69.0938 244.457L62.1967 229.679C61.5013 228.189 60.3037 226.991 58.8139 226.296L44.0353 219.399C43.2659 219.039 43.2659 217.945 44.0353 217.586L58.8139 210.689C60.3037 209.994 61.5013 208.796 62.1967 207.306Z" fill="white" stroke="#F21B3F" stroke-width="6"/>
<path d="M359.181 207.306L356.463 206.038L359.181 207.306L366.079 192.528C366.438 191.758 367.532 191.758 367.891 192.528L374.788 207.306C375.483 208.796 376.681 209.994 378.171 210.689L379.44 207.971L378.171 210.689L392.949 217.586C393.719 217.945 393.719 219.039 392.949 219.399L378.171 226.296C376.681 226.991 375.483 228.189 374.788 229.679L377.507 230.947L374.788 229.679L367.891 244.457C367.532 245.227 366.438 245.227 366.079 244.457L359.181 229.679C358.486 228.189 357.289 226.991 355.799 226.296L341.02 219.399C340.251 219.039 340.251 217.945 341.02 217.586L355.799 210.689C357.289 209.994 358.486 208.796 359.181 207.306Z" fill="white" stroke="#F21B3F" stroke-width="6"/>
</svg>
