<svg width="210" height="210" viewBox="0 0 210 210" fill="none" xmlns="http://www.w3.org/2000/svg">
<path d="M177.668 11.7579C176.552 9.5859 173.448 9.5859 172.332 11.7579L166.67 22.7776C165.811 24.4496 164.45 25.8106 162.778 26.6697L151.758 32.3316C149.586 33.4476 149.586 36.5524 151.758 37.6684L162.778 43.3303C164.45 44.1894 165.811 45.5504 166.67 47.2224L172.332 58.2421C173.448 60.4141 176.552 60.4141 177.668 58.2421L183.33 47.2224C184.189 45.5504 185.55 44.1894 187.222 43.3303L198.242 37.6684C200.414 36.5524 200.414 33.4476 198.242 32.3316L187.222 26.6697C185.55 25.8106 184.189 24.4496 183.33 22.7776L177.668 11.7579Z" fill="white" stroke="#F21B3F" stroke-width="6"/>
<path d="M72.6684 81.7579C71.5524 79.5859 68.4476 79.5859 67.3316 81.7579L49.7903 115.898C48.9312 117.57 47.5702 118.931 45.8982 119.79L11.7579 137.332C9.58591 138.448 9.58591 141.552 11.7579 142.668L45.8982 160.21C47.5702 161.069 48.9312 162.43 49.7903 164.102L67.3316 198.242C68.4476 200.414 71.5524 200.414 72.6684 198.242L90.2097 164.102C91.0688 162.43 92.4298 161.069 94.1018 160.21L128.242 142.668C130.414 141.552 130.414 138.448 128.242 137.332L94.1018 119.79C92.4298 118.931 91.0688 117.57 90.2097 115.898L72.6684 81.7579Z" fill="white" stroke="#F21B3F" stroke-width="6"/>
</svg>
