<svg width="200" height="200" viewBox="0 0 200 200" fill="none" xmlns="http://www.w3.org/2000/svg">
<path d="M77.4031 32.8168C78.5583 30.8195 81.4417 30.8195 82.5969 32.8168L103.597 69.1238C104.533 70.7422 105.95 72.0289 107.65 72.8052L146.795 90.6718C149.135 91.7395 149.135 95.0626 146.795 96.1302L107.65 113.997C105.95 114.773 104.533 116.06 103.597 117.678L82.5969 153.985C81.4417 155.983 78.5583 155.983 77.4031 153.985L56.4034 117.678C55.4673 116.06 54.0504 114.773 52.3496 113.997L13.2046 96.1302C10.8655 95.0626 10.8655 91.7395 13.2046 90.6718L52.3496 72.8052C54.0504 72.0289 55.4673 70.7422 56.4034 69.1238L77.4031 32.8168Z" fill="white" stroke="#F21B3F" stroke-width="6"/>
<path d="M157.403 139.416C158.558 137.418 161.442 137.418 162.597 139.416L170.02 152.25C170.956 153.868 172.373 155.155 174.074 155.931L186.795 161.738C189.135 162.805 189.135 166.129 186.795 167.196L174.074 173.003C172.373 173.779 170.956 175.066 170.02 176.684L162.597 189.518C161.442 191.516 158.558 191.516 157.403 189.518L149.98 176.684C149.044 175.066 147.627 173.779 145.926 173.003L133.205 167.196C130.865 166.129 130.865 162.805 133.205 161.738L145.926 155.931C147.627 155.155 149.044 153.868 149.98 152.25L157.403 139.416Z" fill="white" stroke="#F21B3F" stroke-width="6"/>
<path d="M23.1174 10.4817C24.2726 8.48445 27.156 8.48446 28.3112 10.4817L30.8857 14.933C31.8218 16.5514 33.2387 17.8381 34.9395 18.6144L38.224 20.1135C40.5631 21.1811 40.5631 24.5042 38.224 25.5718L34.9395 27.0709C33.2387 27.8472 31.8218 29.1339 30.8857 30.7523L28.3112 35.2035C27.156 37.2008 24.2726 37.2008 23.1174 35.2035L20.5428 30.7523C19.6068 29.1339 18.1899 27.8472 16.4891 27.0709L13.2046 25.5718C10.8655 24.5042 10.8655 21.1811 13.2046 20.1135L16.4891 18.6144C18.1899 17.8381 19.6068 16.5514 20.5428 14.933L23.1174 10.4817Z" fill="white" stroke="#F21B3F" stroke-width="6"/>
</svg>
