<svg width="438" height="437" viewBox="0 0 438 437" fill="none" xmlns="http://www.w3.org/2000/svg">
<path d="M172.897 177.627C172.76 174.685 175.183 172.263 178.124 172.4L185.727 172.753C190.02 172.953 194.036 170.634 196.01 166.817L199.505 160.055C200.858 157.439 204.166 156.553 206.645 158.142L213.053 162.25C216.671 164.569 221.309 164.569 224.927 162.25L231.334 158.142C233.813 156.553 237.122 157.439 238.474 160.055L241.97 166.817C243.943 170.634 247.959 172.953 252.252 172.753L259.856 172.4C262.797 172.263 265.219 174.685 265.083 177.627L264.729 185.23C264.529 189.523 266.848 193.539 270.666 195.513L277.427 199.008C280.043 200.36 280.929 203.669 279.34 206.148L275.232 212.556C272.913 216.174 272.913 220.811 275.232 224.429L279.34 230.837C280.929 233.316 280.043 236.625 277.427 237.977L270.666 241.472C266.848 243.446 264.529 247.462 264.729 251.755L265.083 259.358C265.219 262.3 262.797 264.722 259.856 264.585L252.252 264.231C247.959 264.032 243.943 266.35 241.97 270.168L238.474 276.93C237.122 279.545 233.813 280.432 231.334 278.843L224.927 274.735C221.309 272.415 216.671 272.415 213.053 274.735L206.645 278.843C204.166 280.432 200.858 279.545 199.505 276.93L196.01 270.168C194.036 266.35 190.02 264.032 185.727 264.231L178.124 264.585C175.183 264.722 172.76 262.3 172.897 259.358L173.251 251.755C173.451 247.462 171.132 243.446 167.314 241.472L160.553 237.977C157.937 236.625 157.05 233.316 158.64 230.837L162.747 224.429C165.067 220.811 165.067 216.174 162.747 212.556L158.64 206.148C157.05 203.669 157.937 200.36 160.553 199.008L167.314 195.513C171.132 193.539 173.451 189.523 173.251 185.23L172.897 177.627Z" fill="white" stroke="#F21B3F" stroke-width="6"/>
<path d="M62.6941 207.306L59.9756 206.038L62.6941 207.306L69.5913 192.528C69.9504 191.758 71.0445 191.758 71.4036 192.528L78.3008 207.306C78.9961 208.796 80.1937 209.994 81.6836 210.689L82.9523 207.971L81.6836 210.689L96.4621 217.586C97.2316 217.945 97.2316 219.039 96.4621 219.399L81.6836 226.296C80.1937 226.991 78.9961 228.189 78.3008 229.679L81.0193 230.947L78.3008 229.679L71.4036 244.457C71.0445 245.227 69.9504 245.227 69.5913 244.457L62.6941 229.679C61.9988 228.189 60.8012 226.991 59.3113 226.296L44.5328 219.399C43.7633 219.039 43.7633 217.945 44.5328 217.586L59.3113 210.689C60.8012 209.994 61.9988 208.796 62.6941 207.306Z" fill="white" stroke="#F21B3F" stroke-width="6"/>
<path d="M359.679 207.306L356.96 206.038L359.679 207.306L366.576 192.528C366.935 191.758 368.029 191.758 368.388 192.528L375.286 207.306C375.981 208.796 377.178 209.994 378.668 210.689L379.937 207.971L378.668 210.689L393.447 217.586C394.216 217.945 394.216 219.039 393.447 219.399L378.668 226.296C377.178 226.991 375.981 228.189 375.286 229.679L378.004 230.947L375.286 229.679L368.388 244.457C368.029 245.227 366.935 245.227 366.576 244.457L359.679 229.679C358.984 228.189 357.786 226.991 356.296 226.296L341.518 219.399C340.748 219.039 340.748 217.945 341.518 217.586L356.296 210.689C357.786 209.994 358.984 208.796 359.679 207.306Z" fill="white" stroke="#F21B3F" stroke-width="6"/>
</svg>
