<svg width="175" height="197" viewBox="0 0 175 197" fill="none" xmlns="http://www.w3.org/2000/svg">
<path d="M67.3316 33.7579C68.4476 31.5859 71.5524 31.5859 72.6684 33.7579L90.2097 67.8982C91.0688 69.5702 92.4298 70.9312 94.1018 71.7903L128.242 89.3316C130.414 90.4476 130.414 93.5524 128.242 94.6684L94.1018 112.21C92.4298 113.069 91.0688 114.43 90.2097 116.102L72.6684 150.242C71.5524 152.414 68.4476 152.414 67.3316 150.242L49.7903 116.102C48.9312 114.43 47.5702 113.069 45.8982 112.21L11.7579 94.6684C9.58591 93.5524 9.58591 90.4476 11.7579 89.3316L45.8982 71.7903C47.5702 70.9312 48.9312 69.5702 49.7903 67.8982L67.3316 33.7579Z" fill="white" stroke="#F21B3F" stroke-width="6"/>
<path d="M137.332 138.758C138.448 136.586 141.552 136.586 142.668 138.758L148.33 149.778C149.189 151.45 150.55 152.811 152.222 153.67L163.242 159.332C165.414 160.448 165.414 163.552 163.242 164.668L152.222 170.33C150.55 171.189 149.189 172.55 148.33 174.222L142.668 185.242C141.552 187.414 138.448 187.414 137.332 185.242L131.67 174.222C130.811 172.55 129.45 171.189 127.778 170.33L116.758 164.668C114.586 163.552 114.586 160.448 116.758 159.332L127.778 153.67C129.45 152.811 130.811 151.45 131.67 149.778L137.332 138.758Z" fill="white" stroke="#F21B3F" stroke-width="6"/>
<path d="M19.8316 11.7579C20.9476 9.58591 24.0524 9.58591 25.1684 11.7579L26.5877 14.5202C27.4468 16.1922 28.8078 17.5532 30.4798 18.4123L33.2421 19.8316C35.4141 20.9476 35.4141 24.0524 33.2421 25.1684L30.4798 26.5877C28.8078 27.4468 27.4468 28.8078 26.5877 30.4798L25.1684 33.2421C24.0524 35.4141 20.9476 35.4141 19.8316 33.2421L18.4123 30.4798C17.5532 28.8078 16.1922 27.4468 14.5202 26.5877L11.7579 25.1684C9.58591 24.0524 9.58591 20.9476 11.7579 19.8316L14.5202 18.4123C16.1922 17.5532 17.5532 16.1922 18.4123 14.5202L19.8316 11.7579Z" fill="white" stroke="#F21B3F" stroke-width="6"/>
</svg>
