<svg width="565" height="200" viewBox="0 0 565 200" fill="none" xmlns="http://www.w3.org/2000/svg">
<path d="M241.129 53.9021L248.732 54.2558C253.025 54.4555 257.042 52.1368 259.015 48.3191L262.51 41.5577C263.863 38.9418 267.171 38.0552 269.651 39.6445L276.058 43.7524C279.676 46.0719 284.314 46.0719 287.932 43.7524L294.339 39.6445C296.818 38.0552 300.127 38.9418 301.48 41.5577L304.975 48.3191C306.948 52.1368 310.965 54.4555 315.258 54.2558L322.861 53.9021C325.802 53.7653 328.224 56.1875 328.088 59.1291L327.734 66.7322C327.534 71.0253 329.853 75.0414 333.671 77.015L340.432 80.5102C343.048 81.8625 343.935 85.1713 342.345 87.6504L338.237 94.0581C335.918 97.6761 335.918 102.314 338.237 105.932L342.345 112.339C343.935 114.818 343.048 118.127 340.432 119.479L333.671 122.975C329.853 124.948 327.534 128.964 327.734 133.257L328.088 140.861C328.224 143.802 325.802 146.224 322.861 146.087L315.258 145.734C310.965 145.534 306.948 147.853 304.975 151.671L301.48 158.432C300.127 161.048 296.818 161.934 294.339 160.345L287.932 156.237C284.314 153.918 279.676 153.918 276.058 156.237L269.651 160.345C267.171 161.934 263.863 161.048 262.51 158.432L259.015 151.671C257.042 147.853 253.025 145.534 248.732 145.734L241.129 146.087C238.188 146.224 235.765 143.802 235.902 140.861L236.256 133.257C236.456 128.964 234.137 124.948 230.319 122.975L223.558 119.479C220.942 118.127 220.055 114.818 221.645 112.339L225.753 105.932C228.072 102.314 228.072 97.6761 225.753 94.0581L221.645 87.6504C220.055 85.1713 220.942 81.8625 223.558 80.5102L230.319 77.015C234.137 75.0414 236.456 71.0252 236.256 66.7322L235.902 59.1291C235.765 56.1875 238.188 53.7653 241.129 53.9021Z" fill="white" stroke="#F21B3F" stroke-width="6"/>
<path d="M135.406 74.0352L142.303 88.8137C142.999 90.3036 144.196 91.5012 145.686 92.1965L160.465 99.0937C161.234 99.4528 161.234 100.547 160.465 100.906L145.686 107.803C144.196 108.499 142.999 109.696 142.303 111.186L135.406 125.965C135.047 126.734 133.953 126.734 133.594 125.965L126.697 111.186C126.001 109.696 124.804 108.499 123.314 107.803L108.535 100.906C107.766 100.547 107.766 99.4528 108.535 99.0937L123.314 92.1965C124.804 91.5012 126.001 90.3036 126.697 88.8137L133.594 74.0352C133.953 73.2658 135.047 73.2657 135.406 74.0352Z" fill="white" stroke="#F21B3F" stroke-width="6"/>
<path d="M431.406 74.0353L438.303 88.8139C438.999 90.3037 440.196 91.5013 441.686 92.1967L456.465 99.0938C457.234 99.4529 457.234 100.547 456.465 100.906L441.686 107.803C440.196 108.499 438.999 109.696 438.303 111.186L431.406 125.965C431.047 126.734 429.953 126.734 429.594 125.965L422.697 111.186C422.001 109.696 420.804 108.499 419.314 107.803L404.535 100.906C403.766 100.547 403.766 99.4529 404.535 99.0938L419.314 92.1967C420.804 91.5013 422.001 90.3037 422.697 88.8139L429.594 74.0353C429.953 73.2659 431.047 73.2659 431.406 74.0353Z" fill="white" stroke="#F21B3F" stroke-width="6"/>
</svg>
