<svg width="175" height="175" viewBox="0 0 175 175" fill="none" xmlns="http://www.w3.org/2000/svg">
<path d="M67.3316 11.7579C68.4476 9.58591 71.5524 9.58591 72.6684 11.7579L90.2097 45.8982C91.0688 47.5702 92.4298 48.9312 94.1018 49.7903L128.242 67.3316C130.414 68.4476 130.414 71.5524 128.242 72.6684L94.1018 90.2097C92.4298 91.0688 91.0688 92.4298 90.2097 94.1018L72.6684 128.242C71.5524 130.414 68.4476 130.414 67.3316 128.242L49.7903 94.1018C48.9312 92.4298 47.5702 91.0688 45.8982 90.2097L11.7579 72.6684C9.58591 71.5524 9.58591 68.4476 11.7579 67.3316L45.8982 49.7903C47.5702 48.9312 48.9312 47.5702 49.7903 45.8982L67.3316 11.7579Z" fill="white" stroke="#F21B3F" stroke-width="6"/>
<path d="M137.332 116.758C138.448 114.586 141.552 114.586 142.668 116.758L148.33 127.778C149.189 129.45 150.55 130.811 152.222 131.67L163.242 137.332C165.414 138.448 165.414 141.552 163.242 142.668L152.222 148.33C150.55 149.189 149.189 150.55 148.33 152.222L142.668 163.242C141.552 165.414 138.448 165.414 137.332 163.242L131.67 152.222C130.811 150.55 129.45 149.189 127.778 148.33L116.758 142.668C114.586 141.552 114.586 138.448 116.758 137.332L127.778 131.67C129.45 130.811 130.811 129.45 131.67 127.778L137.332 116.758Z" fill="white" stroke="#F21B3F" stroke-width="6"/>
</svg>
