<svg width="264" height="275" viewBox="0 0 264 275" fill="none" xmlns="http://www.w3.org/2000/svg">
<path d="M70.5696 88.4743C70.3859 84.5264 73.6368 81.2755 77.5847 81.4591L87.6018 81.9251C93.3635 82.1932 98.7536 79.0812 101.402 73.9574L106.007 65.0493C107.822 61.5385 112.263 60.3486 115.59 62.4816L124.032 67.8937C128.888 71.0067 135.112 71.0067 139.968 67.8937L148.41 62.4816C151.737 60.3486 156.178 61.5385 157.993 65.0493L162.598 73.9574C165.246 79.0812 170.636 82.1932 176.398 81.9251L186.415 81.4592C190.363 81.2755 193.614 84.5264 193.43 88.4743L192.964 98.4914C192.696 104.253 195.808 109.643 200.932 112.292L209.84 116.897C213.351 118.712 214.541 123.153 212.408 126.48L206.996 134.922C203.883 139.778 203.883 146.002 206.996 150.857L212.408 159.299C214.541 162.627 213.351 167.067 209.84 168.882L200.932 173.487C195.808 176.136 192.696 181.526 192.964 187.288L193.43 197.305C193.614 201.253 190.363 204.504 186.415 204.32L176.398 203.854C170.637 203.586 165.246 206.698 162.598 211.822L157.993 220.73C156.178 224.241 151.737 225.431 148.41 223.298L139.968 217.885C135.112 214.772 128.888 214.772 124.032 217.885L115.59 223.297C112.263 225.431 107.822 224.241 106.007 220.73L101.402 211.822C98.7536 206.698 93.3635 203.586 87.6018 203.854L77.5847 204.32C73.6368 204.504 70.3859 201.253 70.5696 197.305L71.0356 187.288C71.3036 181.526 68.1916 176.136 63.0678 173.487L54.1598 168.882C50.649 167.067 49.4591 162.627 51.5921 159.299L57.0042 150.857C60.1171 146.002 60.1171 139.778 57.0042 134.922L51.5921 126.48C49.4591 123.153 50.6489 118.712 54.1598 116.897L63.0678 112.292C68.1916 109.643 71.3036 104.253 71.0356 98.4914L70.5696 88.4743Z" fill="white" stroke="#F21B3F" stroke-width="8.05264"/>
<path d="M212.95 15.7803C211.452 12.8653 207.285 12.8653 205.787 15.7803L202.288 22.5907C201.135 24.8347 199.309 26.6614 197.065 27.8143L190.254 31.3135C187.339 32.8113 187.339 36.9783 190.254 38.4761L197.065 41.9752C199.309 43.1282 201.135 44.9549 202.288 47.1989L205.787 54.0093C207.285 56.9243 211.452 56.9243 212.95 54.0093L216.449 47.1989C217.602 44.9549 219.429 43.1282 221.673 41.9752L228.483 38.4761C231.398 36.9783 231.398 32.8113 228.483 31.3135L221.673 27.8143C219.429 26.6614 217.602 24.8347 216.449 22.5907L212.95 15.7803Z" fill="white" stroke="#F21B3F" stroke-width="8.05264"/>
</svg>
