<svg width="1082" height="802" viewBox="0 0 1082 802" fill="none" xmlns="http://www.w3.org/2000/svg">
<rect width="1082" height="802" fill="#1E1E1E"/>
<g clip-path="url(#clip0_1_4)">
<rect width="1440" height="6526" transform="translate(-179 -812)" fill="white"/>
<rect x="-179" y="-57" width="1440" height="1200" fill="white"/>
<path d="M500.129 -132.098L507.732 -131.744C512.025 -131.544 516.042 -133.863 518.015 -137.681L521.51 -144.442C522.863 -147.058 526.171 -147.945 528.651 -146.355L535.058 -142.248C538.676 -139.928 543.314 -139.928 546.932 -142.248L553.339 -146.355C555.818 -147.945 559.127 -147.058 560.48 -144.442L563.975 -137.681C565.948 -133.863 569.965 -131.544 574.258 -131.744L581.861 -132.098C584.802 -132.235 587.224 -129.813 587.088 -126.871L586.734 -119.268C586.534 -114.975 588.853 -110.959 592.671 -108.985L599.432 -105.49C602.048 -104.137 602.935 -100.829 601.345 -98.3496L597.237 -91.9419C594.918 -88.3239 594.918 -83.6865 597.237 -80.0684L601.345 -73.6608C602.935 -71.1817 602.048 -67.8729 599.432 -66.5206L592.671 -63.0253C588.853 -61.0518 586.534 -57.0356 586.734 -52.7426L587.088 -45.1394C587.224 -42.1979 584.802 -39.7757 581.861 -39.9125L574.258 -40.2662C569.965 -40.4659 565.948 -38.1472 563.975 -34.3295L560.48 -27.5681C559.127 -24.9522 555.818 -24.0656 553.339 -25.6549L546.932 -29.7628C543.314 -32.0822 538.676 -32.0822 535.058 -29.7628L528.651 -25.6549C526.171 -24.0656 522.863 -24.9522 521.51 -27.5681L518.015 -34.3295C516.042 -38.1472 512.025 -40.4659 507.732 -40.2662L500.129 -39.9125C497.188 -39.7757 494.765 -42.1979 494.902 -45.1394L495.256 -52.7426C495.456 -57.0356 493.137 -61.0518 489.319 -63.0253L482.558 -66.5206C479.942 -67.8729 479.055 -71.1817 480.645 -73.6608L484.753 -80.0684C487.072 -83.6864 487.072 -88.3239 484.753 -91.9419L480.645 -98.3496C479.055 -100.829 479.942 -104.137 482.558 -105.49L489.319 -108.985C493.137 -110.959 495.456 -114.975 495.256 -119.268L494.902 -126.871C494.765 -129.813 497.188 -132.235 500.129 -132.098Z" fill="white" stroke="#F21B3F" stroke-width="6"/>
<g filter="url(#filter0_f_1_4)">
<circle cx="1366" cy="1038" r="180" fill="#F21B3F"/>
</g>
<rect x="0.5" y="0.5" width="1081" height="801" rx="8.5" fill="white" stroke="black"/>
<mask id="path-5-inside-1_1_4" fill="white">
<path d="M1 9C1 4.58172 4.58172 1 9 1H1073C1077.42 1 1081 4.58172 1081 9V101H1V9Z"/>
</mask>
<path d="M1 9C1 4.58172 4.58172 1 9 1H1073C1077.42 1 1081 4.58172 1081 9V101H1V9Z" fill="white"/>
<path d="M1 1H1081H1ZM1081 102H1V100H1081V102ZM1 101V1V101ZM1081 1V101V1Z" fill="black" mask="url(#path-5-inside-1_1_4)"/>
<rect x="993" y="31" width="40" height="40" rx="20" fill="#6C6C6C"/>
<rect x="941" y="31" width="40" height="40" rx="20" fill="#3C3C3C"/>
<rect x="889" y="31" width="40" height="40" rx="20" fill="#2C2C2C"/>
<path d="M94.2756 66V39.8182H99.8111V61.4361H111.036V66H94.2756ZM123.471 66.3835C121.485 66.3835 119.768 65.9616 118.319 65.1179C116.879 64.2656 115.767 63.081 114.983 61.5639C114.199 60.0384 113.806 58.2699 113.806 56.2585C113.806 54.2301 114.199 52.4574 114.983 50.9403C115.767 49.4148 116.879 48.2301 118.319 47.3864C119.768 46.5341 121.485 46.108 123.471 46.108C125.457 46.108 127.17 46.5341 128.61 47.3864C130.059 48.2301 131.176 49.4148 131.96 50.9403C132.744 52.4574 133.136 54.2301 133.136 56.2585C133.136 58.2699 132.744 60.0384 131.96 61.5639C131.176 63.081 130.059 64.2656 128.61 65.1179C127.17 65.9616 125.457 66.3835 123.471 66.3835ZM123.497 62.1648C124.4 62.1648 125.154 61.9091 125.76 61.3977C126.365 60.8778 126.821 60.1705 127.127 59.2756C127.443 58.3807 127.6 57.3622 127.6 56.2202C127.6 55.0781 127.443 54.0597 127.127 53.1648C126.821 52.2699 126.365 51.5625 125.76 51.0426C125.154 50.5227 124.4 50.2628 123.497 50.2628C122.585 50.2628 121.818 50.5227 121.196 51.0426C120.582 51.5625 120.118 52.2699 119.802 53.1648C119.495 54.0597 119.342 55.0781 119.342 56.2202C119.342 57.3622 119.495 58.3807 119.802 59.2756C120.118 60.1705 120.582 60.8778 121.196 61.3977C121.818 61.9091 122.585 62.1648 123.497 62.1648ZM154.351 46.3636L147.486 66H141.35L134.485 46.3636H140.238L144.316 60.4134H144.52L148.586 46.3636H154.351ZM165.454 66.3835C163.434 66.3835 161.696 65.9744 160.238 65.1562C158.789 64.3295 157.673 63.1619 156.889 61.6534C156.105 60.1364 155.713 58.3423 155.713 56.2713C155.713 54.2514 156.105 52.4787 156.889 50.9531C157.673 49.4276 158.777 48.2386 160.2 47.3864C161.632 46.5341 163.311 46.108 165.237 46.108C166.532 46.108 167.738 46.3168 168.855 46.7344C169.98 47.1435 170.96 47.7614 171.795 48.5881C172.639 49.4148 173.295 50.4545 173.764 51.7074C174.233 52.9517 174.467 54.4091 174.467 56.0795V57.5753H157.886V54.2003H169.341C169.341 53.4162 169.17 52.7216 168.829 52.1165C168.488 51.5114 168.015 51.0384 167.41 50.6974C166.814 50.348 166.119 50.1733 165.326 50.1733C164.5 50.1733 163.767 50.3651 163.127 50.7486C162.497 51.1236 162.002 51.6307 161.645 52.2699C161.287 52.9006 161.103 53.6037 161.095 54.3793V57.5881C161.095 58.5597 161.274 59.3991 161.632 60.1065C161.998 60.8139 162.514 61.3594 163.179 61.7429C163.843 62.1264 164.632 62.3182 165.544 62.3182C166.149 62.3182 166.703 62.233 167.206 62.0625C167.708 61.892 168.139 61.6364 168.497 61.2955C168.855 60.9545 169.127 60.5369 169.315 60.0426L174.352 60.375C174.096 61.5852 173.572 62.642 172.779 63.5455C171.995 64.4403 170.981 65.1392 169.737 65.642C168.501 66.1364 167.074 66.3835 165.454 66.3835ZM183.467 39.8182V66H178.021V39.8182H183.467ZM193.429 66.3707C192.176 66.3707 191.06 66.1534 190.08 65.7188C189.099 65.2756 188.324 64.6236 187.753 63.7628C187.19 62.8935 186.909 61.8111 186.909 60.5156C186.909 59.4247 187.109 58.5085 187.51 57.767C187.911 57.0256 188.456 56.429 189.146 55.9773C189.837 55.5256 190.621 55.1847 191.499 54.9545C192.385 54.7244 193.314 54.5625 194.286 54.4688C195.428 54.3494 196.348 54.2386 197.047 54.1364C197.746 54.0256 198.253 53.8636 198.568 53.6506C198.884 53.4375 199.041 53.1222 199.041 52.7045V52.6278C199.041 51.8182 198.786 51.1918 198.274 50.7486C197.771 50.3054 197.055 50.0838 196.126 50.0838C195.146 50.0838 194.366 50.3011 193.787 50.7358C193.207 51.1619 192.824 51.6989 192.636 52.3466L187.599 51.9375C187.855 50.7443 188.358 49.7131 189.108 48.8438C189.858 47.9659 190.825 47.2926 192.01 46.8239C193.203 46.3466 194.584 46.108 196.152 46.108C197.243 46.108 198.287 46.2358 199.284 46.4915C200.29 46.7472 201.18 47.1435 201.956 47.6804C202.74 48.2173 203.358 48.9077 203.81 49.7514C204.261 50.5866 204.487 51.5881 204.487 52.7557V66H199.322V63.277H199.169C198.854 63.8906 198.432 64.4318 197.903 64.9006C197.375 65.3608 196.74 65.723 195.999 65.9872C195.257 66.2429 194.401 66.3707 193.429 66.3707ZM194.989 62.6122C195.79 62.6122 196.497 62.4545 197.111 62.1392C197.724 61.8153 198.206 61.3807 198.555 60.8352C198.905 60.2898 199.08 59.6719 199.08 58.9815V56.8977C198.909 57.0085 198.675 57.1108 198.376 57.2045C198.087 57.2898 197.759 57.3707 197.392 57.4474C197.026 57.5156 196.659 57.5795 196.293 57.6392C195.926 57.6903 195.594 57.7372 195.295 57.7798C194.656 57.8736 194.098 58.0227 193.621 58.2273C193.143 58.4318 192.773 58.7088 192.509 59.0582C192.244 59.3991 192.112 59.8253 192.112 60.3366C192.112 61.0781 192.381 61.6449 192.918 62.0369C193.463 62.4205 194.153 62.6122 194.989 62.6122ZM217.585 66.3835C215.573 66.3835 213.843 65.9574 212.394 65.1051C210.954 64.2443 209.846 63.0511 209.07 61.5256C208.303 60 207.92 58.2443 207.92 56.2585C207.92 54.2472 208.308 52.483 209.083 50.9659C209.867 49.4403 210.979 48.2514 212.42 47.3991C213.86 46.5384 215.573 46.108 217.559 46.108C219.272 46.108 220.772 46.419 222.059 47.0412C223.346 47.6634 224.364 48.5369 225.114 49.6619C225.864 50.7869 226.278 52.108 226.354 53.625H221.215C221.07 52.6449 220.687 51.8565 220.065 51.2599C219.451 50.6548 218.646 50.3523 217.648 50.3523C216.805 50.3523 216.067 50.5824 215.437 51.0426C214.815 51.4943 214.329 52.1548 213.979 53.0241C213.63 53.8935 213.455 54.946 213.455 56.1818C213.455 57.4347 213.626 58.5 213.967 59.3778C214.316 60.2557 214.806 60.9247 215.437 61.3849C216.067 61.8452 216.805 62.0753 217.648 62.0753C218.271 62.0753 218.829 61.9474 219.323 61.6918C219.826 61.4361 220.239 61.0653 220.563 60.5795C220.896 60.0852 221.113 59.4929 221.215 58.8026H226.354C226.269 60.3026 225.86 61.6236 225.127 62.7656C224.403 63.8991 223.401 64.7855 222.123 65.4247C220.844 66.0639 219.332 66.3835 217.585 66.3835ZM238.79 66.3835C236.77 66.3835 235.032 65.9744 233.574 65.1562C232.125 64.3295 231.009 63.1619 230.225 61.6534C229.441 60.1364 229.049 58.3423 229.049 56.2713C229.049 54.2514 229.441 52.4787 230.225 50.9531C231.009 49.4276 232.113 48.2386 233.536 47.3864C234.968 46.5341 236.647 46.108 238.573 46.108C239.868 46.108 241.074 46.3168 242.191 46.7344C243.316 47.1435 244.296 47.7614 245.131 48.5881C245.975 49.4148 246.631 50.4545 247.1 51.7074C247.569 52.9517 247.803 54.4091 247.803 56.0795V57.5753H231.222V54.2003H242.676C242.676 53.4162 242.506 52.7216 242.165 52.1165C241.824 51.5114 241.351 51.0384 240.746 50.6974C240.15 50.348 239.455 50.1733 238.662 50.1733C237.836 50.1733 237.103 50.3651 236.463 50.7486C235.833 51.1236 235.338 51.6307 234.98 52.2699C234.623 52.9006 234.439 53.6037 234.431 54.3793V57.5881C234.431 58.5597 234.61 59.3991 234.968 60.1065C235.334 60.8139 235.85 61.3594 236.515 61.7429C237.179 62.1264 237.968 62.3182 238.88 62.3182C239.485 62.3182 240.039 62.233 240.542 62.0625C241.044 61.892 241.475 61.6364 241.833 61.2955C242.191 60.9545 242.463 60.5369 242.651 60.0426L247.688 60.375C247.432 61.5852 246.908 62.642 246.115 63.5455C245.331 64.4403 244.317 65.1392 243.073 65.642C241.837 66.1364 240.409 66.3835 238.79 66.3835Z" fill="black"/>
<rect x="173" y="642" width="64" height="35" rx="8" fill="#F21B3F"/>
<path d="M182.278 665V653.364H189.574V654.875H184.034V658.42H189.193V659.926H184.034V663.489H189.642V665H182.278ZM193.482 659.818V665H191.783V656.273H193.413V657.693H193.521C193.722 657.231 194.036 656.86 194.464 656.58C194.896 656.299 195.44 656.159 196.095 656.159C196.69 656.159 197.211 656.284 197.658 656.534C198.105 656.78 198.451 657.148 198.697 657.636C198.944 658.125 199.067 658.729 199.067 659.449V665H197.368V659.653C197.368 659.021 197.203 658.527 196.874 658.17C196.544 657.811 196.091 657.631 195.516 657.631C195.122 657.631 194.771 657.716 194.464 657.886C194.161 658.057 193.921 658.307 193.743 658.636C193.569 658.962 193.482 659.356 193.482 659.818ZM208.499 656.273L205.334 665H203.516L200.345 656.273H202.169L204.379 662.989H204.47L206.675 656.273H208.499ZM210.095 665V656.273H211.794V665H210.095ZM210.953 654.926C210.658 654.926 210.404 654.828 210.192 654.631C209.983 654.43 209.879 654.191 209.879 653.915C209.879 653.634 209.983 653.396 210.192 653.199C210.404 652.998 210.658 652.898 210.953 652.898C211.249 652.898 211.5 652.998 211.709 653.199C211.921 653.396 212.027 653.634 212.027 653.915C212.027 654.191 211.921 654.43 211.709 654.631C211.5 654.828 211.249 654.926 210.953 654.926ZM216.619 665.193C216.066 665.193 215.566 665.091 215.119 664.886C214.672 664.678 214.318 664.377 214.057 663.983C213.799 663.589 213.67 663.106 213.67 662.534C213.67 662.042 213.765 661.636 213.955 661.318C214.144 661 214.4 660.748 214.722 660.562C215.044 660.377 215.403 660.237 215.801 660.142C216.199 660.047 216.604 659.975 217.017 659.926C217.54 659.866 217.964 659.816 218.29 659.778C218.616 659.737 218.852 659.67 219 659.58C219.148 659.489 219.222 659.341 219.222 659.136V659.097C219.222 658.6 219.081 658.216 218.801 657.943C218.525 657.67 218.112 657.534 217.562 657.534C216.991 657.534 216.54 657.661 216.21 657.915C215.884 658.165 215.659 658.443 215.534 658.75L213.938 658.386C214.127 657.856 214.403 657.428 214.767 657.102C215.134 656.773 215.557 656.534 216.034 656.386C216.511 656.235 217.013 656.159 217.54 656.159C217.888 656.159 218.258 656.201 218.648 656.284C219.042 656.364 219.409 656.511 219.75 656.727C220.095 656.943 220.377 657.252 220.597 657.653C220.816 658.051 220.926 658.568 220.926 659.205V665H219.267V663.807H219.199C219.089 664.027 218.924 664.242 218.705 664.455C218.485 664.667 218.203 664.843 217.858 664.983C217.513 665.123 217.1 665.193 216.619 665.193ZM216.989 663.83C217.458 663.83 217.86 663.737 218.193 663.551C218.53 663.366 218.786 663.123 218.96 662.824C219.138 662.521 219.227 662.197 219.227 661.852V660.727C219.167 660.788 219.049 660.845 218.875 660.898C218.705 660.947 218.509 660.991 218.29 661.028C218.07 661.062 217.856 661.095 217.648 661.125C217.439 661.152 217.265 661.174 217.125 661.193C216.795 661.235 216.494 661.305 216.222 661.403C215.953 661.502 215.737 661.644 215.574 661.83C215.415 662.011 215.335 662.254 215.335 662.557C215.335 662.977 215.491 663.295 215.801 663.511C216.112 663.723 216.508 663.83 216.989 663.83ZM223.189 665V656.273H224.831V657.659H224.922C225.081 657.189 225.361 656.82 225.763 656.551C226.168 656.278 226.626 656.142 227.138 656.142C227.244 656.142 227.369 656.146 227.513 656.153C227.661 656.161 227.776 656.17 227.859 656.182V657.807C227.791 657.788 227.67 657.767 227.496 657.744C227.321 657.718 227.147 657.705 226.973 657.705C226.571 657.705 226.214 657.79 225.899 657.96C225.589 658.127 225.342 658.36 225.161 658.659C224.979 658.955 224.888 659.292 224.888 659.67V665H223.189Z" fill="white"/>
<rect x="249.5" y="642.5" width="108" height="34" rx="7.5" stroke="#F21B3F"/>
<path d="M258.278 653.364H260.409L264.114 662.409H264.25L267.955 653.364H270.085V665H268.415V656.58H268.307L264.875 664.983H263.489L260.057 656.574H259.949V665H258.278V653.364ZM278.03 661.381V656.273H279.734V665H278.064V663.489H277.973C277.772 663.955 277.45 664.343 277.007 664.653C276.568 664.96 276.02 665.114 275.365 665.114C274.804 665.114 274.308 664.991 273.876 664.744C273.448 664.494 273.111 664.125 272.865 663.636C272.623 663.148 272.501 662.544 272.501 661.824V656.273H274.2V661.619C274.2 662.214 274.365 662.687 274.695 663.04C275.024 663.392 275.452 663.568 275.979 663.568C276.297 663.568 276.613 663.489 276.928 663.33C277.246 663.17 277.509 662.93 277.717 662.608C277.929 662.286 278.034 661.877 278.03 661.381ZM285.284 665.17C284.58 665.17 283.951 664.991 283.398 664.631C282.848 664.267 282.417 663.75 282.102 663.08C281.792 662.405 281.636 661.597 281.636 660.653C281.636 659.71 281.794 658.903 282.108 658.233C282.426 657.562 282.862 657.049 283.415 656.693C283.968 656.337 284.595 656.159 285.295 656.159C285.837 656.159 286.273 656.25 286.602 656.432C286.936 656.61 287.193 656.818 287.375 657.057C287.561 657.295 287.705 657.506 287.807 657.688H287.909V653.364H289.608V665H287.949V663.642H287.807C287.705 663.828 287.557 664.04 287.364 664.278C287.174 664.517 286.913 664.725 286.58 664.903C286.246 665.081 285.814 665.17 285.284 665.17ZM285.659 663.722C286.148 663.722 286.561 663.593 286.898 663.335C287.239 663.074 287.496 662.712 287.67 662.25C287.848 661.788 287.938 661.25 287.938 660.636C287.938 660.03 287.85 659.5 287.676 659.045C287.502 658.591 287.246 658.237 286.909 657.983C286.572 657.729 286.155 657.602 285.659 657.602C285.148 657.602 284.722 657.735 284.381 658C284.04 658.265 283.782 658.627 283.608 659.085C283.438 659.544 283.352 660.061 283.352 660.636C283.352 661.22 283.439 661.744 283.614 662.21C283.788 662.676 284.045 663.045 284.386 663.318C284.731 663.587 285.155 663.722 285.659 663.722ZM294.572 665.193C294.019 665.193 293.519 665.091 293.072 664.886C292.625 664.678 292.271 664.377 292.01 663.983C291.752 663.589 291.624 663.106 291.624 662.534C291.624 662.042 291.718 661.636 291.908 661.318C292.097 661 292.353 660.748 292.675 660.562C292.997 660.377 293.357 660.237 293.754 660.142C294.152 660.047 294.557 659.975 294.97 659.926C295.493 659.866 295.917 659.816 296.243 659.778C296.569 659.737 296.805 659.67 296.953 659.58C297.101 659.489 297.175 659.341 297.175 659.136V659.097C297.175 658.6 297.035 658.216 296.754 657.943C296.478 657.67 296.065 657.534 295.516 657.534C294.944 657.534 294.493 657.661 294.163 657.915C293.838 658.165 293.612 658.443 293.487 658.75L291.891 658.386C292.08 657.856 292.357 657.428 292.72 657.102C293.088 656.773 293.51 656.534 293.987 656.386C294.464 656.235 294.966 656.159 295.493 656.159C295.841 656.159 296.211 656.201 296.601 656.284C296.995 656.364 297.362 656.511 297.703 656.727C298.048 656.943 298.33 657.252 298.55 657.653C298.769 658.051 298.879 658.568 298.879 659.205V665H297.22V663.807H297.152C297.042 664.027 296.877 664.242 296.658 664.455C296.438 664.667 296.156 664.843 295.811 664.983C295.466 665.123 295.054 665.193 294.572 665.193ZM294.942 663.83C295.411 663.83 295.813 663.737 296.146 663.551C296.483 663.366 296.739 663.123 296.913 662.824C297.091 662.521 297.18 662.197 297.18 661.852V660.727C297.12 660.788 297.002 660.845 296.828 660.898C296.658 660.947 296.463 660.991 296.243 661.028C296.023 661.062 295.809 661.095 295.601 661.125C295.393 661.152 295.218 661.174 295.078 661.193C294.749 661.235 294.447 661.305 294.175 661.403C293.906 661.502 293.69 661.644 293.527 661.83C293.368 662.011 293.288 662.254 293.288 662.557C293.288 662.977 293.444 663.295 293.754 663.511C294.065 663.723 294.461 663.83 294.942 663.83ZM301.142 665V656.273H302.784V657.659H302.875C303.034 657.189 303.314 656.82 303.716 656.551C304.121 656.278 304.58 656.142 305.091 656.142C305.197 656.142 305.322 656.146 305.466 656.153C305.614 656.161 305.729 656.17 305.812 656.182V657.807C305.744 657.788 305.623 657.767 305.449 657.744C305.275 657.718 305.1 657.705 304.926 657.705C304.525 657.705 304.167 657.79 303.852 657.96C303.542 658.127 303.295 658.36 303.114 658.659C302.932 658.955 302.841 659.292 302.841 659.67V665H301.142ZM315.591 656.273V657.636H310.824V656.273H315.591ZM312.102 654.182H313.801V662.438C313.801 662.767 313.85 663.015 313.949 663.182C314.047 663.345 314.174 663.456 314.33 663.517C314.489 663.574 314.661 663.602 314.847 663.602C314.983 663.602 315.102 663.593 315.205 663.574C315.307 663.555 315.386 663.54 315.443 663.528L315.75 664.932C315.652 664.97 315.511 665.008 315.33 665.045C315.148 665.087 314.92 665.11 314.648 665.114C314.201 665.121 313.784 665.042 313.398 664.875C313.011 664.708 312.699 664.451 312.46 664.102C312.222 663.754 312.102 663.316 312.102 662.79V654.182ZM321.138 665.176C320.278 665.176 319.537 664.992 318.916 664.625C318.299 664.254 317.821 663.733 317.484 663.062C317.151 662.388 316.984 661.598 316.984 660.693C316.984 659.799 317.151 659.011 317.484 658.33C317.821 657.648 318.291 657.116 318.893 656.733C319.5 656.35 320.208 656.159 321.018 656.159C321.511 656.159 321.988 656.241 322.45 656.403C322.912 656.566 323.327 656.822 323.695 657.17C324.062 657.519 324.352 657.972 324.564 658.528C324.776 659.081 324.882 659.754 324.882 660.545V661.148H317.945V659.875H323.217C323.217 659.428 323.126 659.032 322.945 658.688C322.763 658.339 322.507 658.064 322.178 657.864C321.852 657.663 321.469 657.562 321.03 657.562C320.553 657.562 320.136 657.68 319.78 657.915C319.428 658.146 319.155 658.449 318.962 658.824C318.772 659.195 318.678 659.598 318.678 660.034V661.028C318.678 661.612 318.78 662.108 318.984 662.517C319.193 662.926 319.482 663.239 319.854 663.455C320.225 663.667 320.659 663.773 321.155 663.773C321.477 663.773 321.77 663.727 322.036 663.636C322.301 663.542 322.53 663.402 322.723 663.216C322.916 663.03 323.064 662.801 323.166 662.528L324.774 662.818C324.645 663.292 324.414 663.706 324.081 664.062C323.751 664.415 323.337 664.689 322.837 664.886C322.34 665.08 321.774 665.176 321.138 665.176ZM327.905 656.273L329.831 659.67L331.774 656.273H333.632L330.911 660.636L333.655 665H331.797L329.831 661.739L327.871 665H326.007L328.723 660.636L326.041 656.273H327.905ZM339.45 656.273V657.636H334.683V656.273H339.45ZM335.962 654.182H337.661V662.438C337.661 662.767 337.71 663.015 337.808 663.182C337.907 663.345 338.034 663.456 338.189 663.517C338.348 663.574 338.52 663.602 338.706 663.602C338.842 663.602 338.962 663.593 339.064 663.574C339.166 663.555 339.246 663.54 339.303 663.528L339.609 664.932C339.511 664.97 339.371 665.008 339.189 665.045C339.007 665.087 338.78 665.11 338.507 665.114C338.06 665.121 337.643 665.042 337.257 664.875C336.871 664.708 336.558 664.451 336.32 664.102C336.081 663.754 335.962 663.316 335.962 662.79V654.182ZM344.912 665.176C344.094 665.176 343.38 664.989 342.77 664.614C342.16 664.239 341.687 663.714 341.349 663.04C341.012 662.366 340.844 661.578 340.844 660.676C340.844 659.771 341.012 658.979 341.349 658.301C341.687 657.623 342.16 657.097 342.77 656.722C343.38 656.347 344.094 656.159 344.912 656.159C345.73 656.159 346.444 656.347 347.054 656.722C347.664 657.097 348.137 657.623 348.474 658.301C348.812 658.979 348.98 659.771 348.98 660.676C348.98 661.578 348.812 662.366 348.474 663.04C348.137 663.714 347.664 664.239 347.054 664.614C346.444 664.989 345.73 665.176 344.912 665.176ZM344.918 663.75C345.448 663.75 345.887 663.61 346.236 663.33C346.584 663.049 346.842 662.676 347.009 662.21C347.179 661.744 347.264 661.231 347.264 660.67C347.264 660.114 347.179 659.602 347.009 659.136C346.842 658.667 346.584 658.29 346.236 658.006C345.887 657.722 345.448 657.58 344.918 657.58C344.384 657.58 343.94 657.722 343.588 658.006C343.24 658.29 342.98 658.667 342.81 659.136C342.643 659.602 342.56 660.114 342.56 660.67C342.56 661.231 342.643 661.744 342.81 662.21C342.98 662.676 343.24 663.049 343.588 663.33C343.94 663.61 344.384 663.75 344.918 663.75Z" fill="#F21B3F"/>
<rect x="173.5" y="167.5" width="359" height="396" rx="7.5" fill="white" stroke="black"/>
<rect x="194" y="195.534" width="316" height="17.3687" rx="8.68437" fill="#A6A6A6"/>
<rect x="194" y="227.791" width="206" height="17.3687" rx="8.68437" fill="#A6A6A6"/>
<rect x="194" y="260.047" width="274" height="17.3687" rx="8.68437" fill="#A6A6A6"/>
<rect x="194" y="292.303" width="242" height="17.3687" rx="8.68437" fill="#A6A6A6"/>
<rect x="194" y="324.559" width="316" height="17.3687" rx="8.68437" fill="#A6A6A6"/>
<rect x="194" y="356.816" width="174" height="17.3687" rx="8.68437" fill="#A6A6A6"/>
<rect x="194" y="389.072" width="274" height="17.3687" rx="8.68437" fill="#A6A6A6"/>
<rect x="194" y="421.328" width="316" height="17.3687" rx="8.68437" fill="#A6A6A6"/>
<rect x="194" y="453.584" width="283" height="17.3687" rx="8.68437" fill="#A6A6A6"/>
<rect x="194" y="485.841" width="174" height="17.3687" rx="8.68437" fill="#A6A6A6"/>
<rect x="97.5" y="167.5" width="59" height="39" rx="7.5" fill="white" stroke="black"/>
<path d="M112.524 192.169C111.739 192.166 111.067 191.959 110.511 191.548C109.954 191.137 109.528 190.538 109.233 189.753C108.938 188.967 108.79 188.021 108.79 186.914C108.79 185.81 108.938 184.867 109.233 184.085C109.531 183.303 109.959 182.706 110.516 182.295C111.076 181.884 111.745 181.679 112.524 181.679C113.303 181.679 113.971 181.886 114.528 182.3C115.085 182.711 115.51 183.308 115.805 184.09C116.104 184.869 116.253 185.81 116.253 186.914C116.253 188.024 116.105 188.972 115.81 189.758C115.515 190.54 115.089 191.138 114.533 191.553C113.976 191.964 113.306 192.169 112.524 192.169ZM112.524 190.842C113.214 190.842 113.752 190.505 114.14 189.832C114.531 189.16 114.727 188.187 114.727 186.914C114.727 186.069 114.637 185.355 114.458 184.771C114.282 184.185 114.029 183.741 113.697 183.439C113.369 183.134 112.978 182.982 112.524 182.982C111.838 182.982 111.299 183.32 110.908 183.996C110.517 184.672 110.32 185.645 110.317 186.914C110.317 187.763 110.405 188.48 110.58 189.067C110.759 189.65 111.013 190.093 111.341 190.394C111.669 190.692 112.063 190.842 112.524 190.842ZM117.803 190.011V188.768L122.203 181.818H123.182V183.648H122.561L119.414 188.629V188.709H125.444V190.011H117.803ZM122.63 192V189.634L122.64 189.067V181.818H124.097V192H122.63ZM128.176 190.737C127.904 190.737 127.671 190.641 127.475 190.449C127.279 190.253 127.182 190.018 127.182 189.743C127.182 189.471 127.279 189.239 127.475 189.047C127.671 188.851 127.904 188.754 128.176 188.754C128.448 188.754 128.681 188.851 128.877 189.047C129.073 189.239 129.17 189.471 129.17 189.743C129.17 189.925 129.124 190.093 129.031 190.245C128.942 190.394 128.822 190.513 128.673 190.603C128.524 190.692 128.358 190.737 128.176 190.737ZM128.176 185.636C127.904 185.636 127.671 185.54 127.475 185.348C127.279 185.152 127.182 184.917 127.182 184.642C127.182 184.37 127.279 184.138 127.475 183.946C127.671 183.75 127.904 183.653 128.176 183.653C128.448 183.653 128.681 183.75 128.877 183.946C129.073 184.138 129.17 184.37 129.17 184.642C129.17 184.824 129.124 184.992 129.031 185.144C128.942 185.293 128.822 185.413 128.673 185.502C128.524 185.592 128.358 185.636 128.176 185.636ZM135.004 181.818V192H133.463V183.359H133.404L130.968 184.95V183.479L133.508 181.818H135.004ZM137.759 192V190.886L141.204 187.317C141.572 186.929 141.875 186.589 142.114 186.298C142.356 186.003 142.536 185.723 142.656 185.457C142.775 185.192 142.835 184.911 142.835 184.612C142.835 184.274 142.755 183.982 142.596 183.737C142.437 183.489 142.22 183.298 141.945 183.165C141.67 183.03 141.36 182.962 141.015 182.962C140.651 182.962 140.332 183.036 140.061 183.185C139.789 183.335 139.58 183.545 139.434 183.817C139.288 184.089 139.215 184.407 139.215 184.771H137.749C137.749 184.152 137.891 183.61 138.176 183.146C138.461 182.682 138.852 182.322 139.35 182.067C139.847 181.808 140.412 181.679 141.045 181.679C141.685 181.679 142.248 181.807 142.735 182.062C143.226 182.314 143.609 182.658 143.884 183.096C144.159 183.53 144.296 184.021 144.296 184.567C144.296 184.945 144.225 185.315 144.083 185.676C143.943 186.037 143.7 186.44 143.352 186.884C143.004 187.325 142.52 187.86 141.9 188.49L139.877 190.608V190.683H144.46V192H137.759Z" fill="black"/>
<rect x="173.5" y="588.5" width="359" height="35" rx="5.5" fill="white" stroke="black"/>
<rect x="565.5" y="166.5" width="419" height="510" rx="7.5" fill="white" stroke="black"/>
<path d="M659.034 244V209.091H672.807C675.443 209.091 677.693 209.562 679.557 210.506C681.432 211.437 682.858 212.761 683.835 214.477C684.824 216.182 685.318 218.187 685.318 220.494C685.318 222.812 684.818 224.807 683.818 226.477C682.818 228.136 681.369 229.409 679.472 230.295C677.585 231.182 675.301 231.625 672.619 231.625H663.398V225.693H671.426C672.835 225.693 674.006 225.5 674.938 225.114C675.869 224.727 676.563 224.148 677.017 223.375C677.483 222.602 677.716 221.642 677.716 220.494C677.716 219.335 677.483 218.358 677.017 217.562C676.563 216.767 675.864 216.165 674.92 215.756C673.989 215.335 672.813 215.125 671.392 215.125H666.415V244H659.034ZM677.886 228.114L686.562 244H678.415L669.926 228.114H677.886ZM701.908 244.511C699.214 244.511 696.896 243.966 694.953 242.875C693.021 241.773 691.533 240.216 690.487 238.205C689.442 236.182 688.919 233.79 688.919 231.028C688.919 228.335 689.442 225.972 690.487 223.938C691.533 221.903 693.004 220.318 694.902 219.182C696.811 218.045 699.05 217.477 701.618 217.477C703.345 217.477 704.953 217.756 706.442 218.312C707.942 218.858 709.249 219.682 710.362 220.784C711.487 221.886 712.362 223.273 712.987 224.943C713.612 226.602 713.925 228.545 713.925 230.773V232.767H691.817V228.267H707.089C707.089 227.222 706.862 226.295 706.408 225.489C705.953 224.682 705.322 224.051 704.516 223.597C703.72 223.131 702.794 222.898 701.737 222.898C700.635 222.898 699.658 223.153 698.805 223.665C697.964 224.165 697.305 224.841 696.828 225.693C696.351 226.534 696.107 227.472 696.095 228.506V232.784C696.095 234.08 696.334 235.199 696.811 236.142C697.3 237.085 697.987 237.812 698.874 238.324C699.76 238.835 700.811 239.091 702.027 239.091C702.834 239.091 703.572 238.977 704.243 238.75C704.913 238.523 705.487 238.182 705.964 237.727C706.442 237.273 706.805 236.716 707.055 236.057L713.771 236.5C713.43 238.114 712.732 239.523 711.675 240.727C710.629 241.92 709.277 242.852 707.618 243.523C705.97 244.182 704.067 244.511 701.908 244.511ZM740.447 225.284L733.8 225.693C733.686 225.125 733.442 224.614 733.067 224.159C732.692 223.693 732.197 223.324 731.584 223.051C730.982 222.767 730.26 222.625 729.419 222.625C728.294 222.625 727.345 222.864 726.572 223.341C725.8 223.807 725.413 224.432 725.413 225.216C725.413 225.841 725.663 226.369 726.163 226.801C726.663 227.233 727.521 227.58 728.737 227.841L733.476 228.795C736.021 229.318 737.919 230.159 739.169 231.318C740.419 232.477 741.044 234 741.044 235.886C741.044 237.602 740.538 239.108 739.527 240.403C738.527 241.699 737.152 242.71 735.402 243.438C733.663 244.153 731.658 244.511 729.385 244.511C725.919 244.511 723.158 243.79 721.101 242.347C719.055 240.892 717.857 238.915 717.504 236.415L724.646 236.04C724.862 237.097 725.385 237.903 726.214 238.46C727.044 239.006 728.107 239.278 729.402 239.278C730.675 239.278 731.697 239.034 732.47 238.545C733.254 238.045 733.652 237.403 733.663 236.619C733.652 235.96 733.374 235.42 732.828 235C732.283 234.568 731.442 234.239 730.305 234.011L725.771 233.108C723.214 232.597 721.311 231.71 720.061 230.449C718.822 229.187 718.203 227.58 718.203 225.625C718.203 223.943 718.658 222.494 719.567 221.278C720.487 220.062 721.777 219.125 723.436 218.466C725.107 217.807 727.061 217.477 729.3 217.477C732.607 217.477 735.209 218.176 737.107 219.574C739.016 220.972 740.129 222.875 740.447 225.284ZM762.406 232.852V217.818H769.668V244H762.696V239.244H762.423C761.832 240.778 760.849 242.011 759.474 242.943C758.111 243.875 756.446 244.341 754.48 244.341C752.73 244.341 751.19 243.943 749.861 243.148C748.531 242.352 747.491 241.222 746.741 239.756C746.003 238.29 745.628 236.534 745.616 234.489V217.818H752.878V233.193C752.889 234.739 753.304 235.96 754.122 236.858C754.94 237.756 756.037 238.205 757.412 238.205C758.287 238.205 759.105 238.006 759.866 237.608C760.628 237.199 761.241 236.597 761.707 235.801C762.185 235.006 762.418 234.023 762.406 232.852ZM782.737 209.091V244H775.476V209.091H782.737ZM802.48 217.818V223.273H786.713V217.818H802.48ZM790.293 211.545H797.554V235.955C797.554 236.625 797.656 237.148 797.861 237.523C798.065 237.886 798.349 238.142 798.713 238.29C799.088 238.437 799.52 238.511 800.009 238.511C800.349 238.511 800.69 238.483 801.031 238.426C801.372 238.358 801.634 238.307 801.815 238.273L802.957 243.676C802.594 243.79 802.082 243.92 801.423 244.068C800.764 244.227 799.963 244.324 799.02 244.358C797.27 244.426 795.736 244.193 794.418 243.659C793.111 243.125 792.094 242.295 791.366 241.17C790.639 240.045 790.281 238.625 790.293 236.909V211.545ZM814.676 244.494C813.006 244.494 811.517 244.205 810.21 243.625C808.903 243.034 807.869 242.165 807.108 241.017C806.358 239.858 805.983 238.415 805.983 236.688C805.983 235.233 806.25 234.011 806.784 233.023C807.318 232.034 808.045 231.239 808.966 230.636C809.886 230.034 810.932 229.58 812.102 229.273C813.284 228.966 814.523 228.75 815.818 228.625C817.341 228.466 818.568 228.318 819.5 228.182C820.432 228.034 821.108 227.818 821.528 227.534C821.949 227.25 822.159 226.83 822.159 226.273V226.17C822.159 225.091 821.818 224.256 821.136 223.665C820.466 223.074 819.511 222.778 818.273 222.778C816.966 222.778 815.926 223.068 815.153 223.648C814.381 224.216 813.869 224.932 813.619 225.795L806.903 225.25C807.244 223.659 807.915 222.284 808.915 221.125C809.915 219.955 811.205 219.057 812.784 218.432C814.375 217.795 816.216 217.477 818.307 217.477C819.761 217.477 821.153 217.648 822.483 217.989C823.824 218.33 825.011 218.858 826.045 219.574C827.091 220.29 827.915 221.21 828.517 222.335C829.119 223.449 829.42 224.784 829.42 226.341V244H822.534V240.369H822.33C821.909 241.188 821.347 241.909 820.642 242.534C819.938 243.148 819.091 243.631 818.102 243.983C817.114 244.324 815.972 244.494 814.676 244.494ZM816.756 239.483C817.824 239.483 818.767 239.273 819.585 238.852C820.403 238.42 821.045 237.841 821.511 237.114C821.977 236.386 822.21 235.562 822.21 234.642V231.864C821.983 232.011 821.67 232.148 821.273 232.273C820.886 232.386 820.449 232.494 819.96 232.597C819.472 232.687 818.983 232.773 818.494 232.852C818.006 232.92 817.562 232.983 817.165 233.04C816.313 233.165 815.568 233.364 814.932 233.636C814.295 233.909 813.801 234.278 813.449 234.744C813.097 235.199 812.92 235.767 812.92 236.449C812.92 237.438 813.278 238.193 813.994 238.716C814.722 239.227 815.642 239.483 816.756 239.483ZM844.702 244.426C842.713 244.426 840.912 243.915 839.298 242.892C837.696 241.858 836.423 240.341 835.48 238.341C834.548 236.33 834.082 233.864 834.082 230.943C834.082 227.943 834.565 225.449 835.531 223.46C836.497 221.46 837.781 219.966 839.384 218.977C840.997 217.977 842.764 217.477 844.685 217.477C846.151 217.477 847.372 217.727 848.349 218.227C849.338 218.716 850.134 219.33 850.736 220.068C851.349 220.795 851.815 221.511 852.134 222.216H852.355V209.091H859.599V244H852.44V239.807H852.134C851.793 240.534 851.31 241.256 850.685 241.972C850.071 242.676 849.27 243.261 848.281 243.727C847.304 244.193 846.111 244.426 844.702 244.426ZM847.003 238.648C848.173 238.648 849.162 238.33 849.969 237.693C850.787 237.045 851.412 236.142 851.844 234.983C852.287 233.824 852.509 232.466 852.509 230.909C852.509 229.352 852.293 228 851.861 226.852C851.429 225.705 850.804 224.818 849.986 224.193C849.168 223.568 848.173 223.256 847.003 223.256C845.81 223.256 844.804 223.58 843.986 224.227C843.168 224.875 842.548 225.773 842.128 226.92C841.707 228.068 841.497 229.398 841.497 230.909C841.497 232.432 841.707 233.778 842.128 234.949C842.56 236.108 843.179 237.017 843.986 237.676C844.804 238.324 845.81 238.648 847.003 238.648ZM877.399 244.511C874.751 244.511 872.462 243.949 870.53 242.824C868.609 241.687 867.126 240.108 866.081 238.085C865.036 236.051 864.513 233.693 864.513 231.011C864.513 228.307 865.036 225.943 866.081 223.92C867.126 221.886 868.609 220.307 870.53 219.182C872.462 218.045 874.751 217.477 877.399 217.477C880.047 217.477 882.331 218.045 884.251 219.182C886.183 220.307 887.672 221.886 888.717 223.92C889.763 225.943 890.286 228.307 890.286 231.011C890.286 233.693 889.763 236.051 888.717 238.085C887.672 240.108 886.183 241.687 884.251 242.824C882.331 243.949 880.047 244.511 877.399 244.511ZM877.433 238.886C878.638 238.886 879.643 238.545 880.45 237.864C881.257 237.17 881.865 236.227 882.274 235.034C882.695 233.841 882.905 232.483 882.905 230.96C882.905 229.438 882.695 228.08 882.274 226.886C881.865 225.693 881.257 224.75 880.45 224.057C879.643 223.364 878.638 223.017 877.433 223.017C876.217 223.017 875.195 223.364 874.365 224.057C873.547 224.75 872.928 225.693 872.507 226.886C872.098 228.08 871.893 229.438 871.893 230.96C871.893 232.483 872.098 233.841 872.507 235.034C872.928 236.227 873.547 237.17 874.365 237.864C875.195 238.545 876.217 238.886 877.433 238.886Z" fill="black"/>
<rect x="631" y="270" width="288" height="128" rx="12.8" fill="#F21B3F"/>
<path d="M669.736 361.6L692.891 315.782V315.4H665.918V305.745H705.109V315.536L681.927 361.6H669.736ZM732.573 362.364C728.5 362.364 724.873 361.664 721.691 360.264C718.527 358.845 716.027 356.9 714.191 354.427C712.373 351.936 711.436 349.064 711.382 345.809H723.273C723.345 347.173 723.791 348.373 724.609 349.409C725.445 350.427 726.555 351.218 727.936 351.782C729.318 352.345 730.873 352.627 732.6 352.627C734.4 352.627 735.991 352.309 737.373 351.673C738.755 351.036 739.836 350.155 740.618 349.027C741.4 347.9 741.791 346.6 741.791 345.127C741.791 343.636 741.373 342.318 740.536 341.173C739.718 340.009 738.536 339.1 736.991 338.445C735.464 337.791 733.645 337.464 731.536 337.464H726.327V328.791H731.536C733.318 328.791 734.891 328.482 736.255 327.864C737.636 327.245 738.709 326.391 739.473 325.3C740.236 324.191 740.618 322.9 740.618 321.427C740.618 320.027 740.282 318.8 739.609 317.745C738.955 316.673 738.027 315.836 736.827 315.236C735.645 314.636 734.264 314.336 732.682 314.336C731.082 314.336 729.618 314.627 728.291 315.209C726.964 315.773 725.9 316.582 725.1 317.636C724.3 318.691 723.873 319.927 723.818 321.345H712.5C712.555 318.127 713.473 315.291 715.255 312.836C717.036 310.382 719.436 308.464 722.455 307.082C725.491 305.682 728.918 304.982 732.736 304.982C736.591 304.982 739.964 305.682 742.855 307.082C745.745 308.482 747.991 310.373 749.591 312.755C751.209 315.118 752.009 317.773 751.991 320.718C752.009 323.845 751.036 326.455 749.073 328.545C747.127 330.636 744.591 331.964 741.464 332.527V332.964C745.573 333.491 748.7 334.918 750.845 337.245C753.009 339.555 754.082 342.445 754.064 345.918C754.082 349.1 753.164 351.927 751.309 354.4C749.473 356.873 746.936 358.818 743.7 360.236C740.464 361.655 736.755 362.364 732.573 362.364ZM777.334 322.618L765.334 367.2H758.661L770.661 322.618H777.334ZM797.193 324.364V361.6H789.32V331.836H789.102L780.575 337.182V330.2L789.793 324.364H797.193ZM820.643 362.418C817.516 362.406 814.825 361.636 812.57 360.109C810.328 358.582 808.601 356.37 807.389 353.473C806.189 350.576 805.595 347.091 805.607 343.018C805.607 338.958 806.207 335.497 807.407 332.636C808.619 329.776 810.346 327.6 812.589 326.109C814.843 324.606 817.528 323.855 820.643 323.855C823.758 323.855 826.437 324.606 828.68 326.109C830.934 327.612 832.667 329.794 833.88 332.655C835.092 335.503 835.692 338.958 835.68 343.018C835.68 347.103 835.073 350.594 833.861 353.491C832.661 356.388 830.94 358.6 828.698 360.127C826.455 361.655 823.77 362.418 820.643 362.418ZM820.643 355.891C822.777 355.891 824.48 354.818 825.752 352.673C827.025 350.527 827.655 347.309 827.643 343.018C827.643 340.194 827.352 337.842 826.77 335.964C826.201 334.085 825.389 332.673 824.334 331.727C823.292 330.782 822.061 330.309 820.643 330.309C818.522 330.309 816.825 331.37 815.552 333.491C814.28 335.612 813.637 338.788 813.625 343.018C813.625 345.879 813.91 348.267 814.48 350.182C815.061 352.085 815.88 353.515 816.934 354.473C817.989 355.418 819.225 355.891 820.643 355.891ZM855.893 362.418C852.766 362.406 850.075 361.636 847.82 360.109C845.578 358.582 843.851 356.37 842.639 353.473C841.439 350.576 840.845 347.091 840.857 343.018C840.857 338.958 841.457 335.497 842.657 332.636C843.869 329.776 845.596 327.6 847.839 326.109C850.093 324.606 852.778 323.855 855.893 323.855C859.008 323.855 861.687 324.606 863.93 326.109C866.184 327.612 867.917 329.794 869.13 332.655C870.342 335.503 870.942 338.958 870.93 343.018C870.93 347.103 870.323 350.594 869.111 353.491C867.911 356.388 866.19 358.6 863.948 360.127C861.705 361.655 859.02 362.418 855.893 362.418ZM855.893 355.891C858.027 355.891 859.73 354.818 861.002 352.673C862.275 350.527 862.905 347.309 862.893 343.018C862.893 340.194 862.602 337.842 862.02 335.964C861.451 334.085 860.639 332.673 859.584 331.727C858.542 330.782 857.311 330.309 855.893 330.309C853.772 330.309 852.075 331.37 850.802 333.491C849.53 335.612 848.887 338.788 848.875 343.018C848.875 345.879 849.16 348.267 849.73 350.182C850.311 352.085 851.13 353.515 852.184 354.473C853.239 355.418 854.475 355.891 855.893 355.891Z" fill="white"/>
<path d="M691.788 460H685.857L694.895 433.818H702.028L711.054 460H705.122L698.564 439.801H698.359L691.788 460ZM691.418 449.709H705.429V454.03H691.418V449.709ZM720.425 460.32C718.933 460.32 717.582 459.936 716.372 459.169C715.17 458.393 714.216 457.256 713.509 455.756C712.81 454.247 712.46 452.398 712.46 450.207C712.46 447.957 712.822 446.087 713.547 444.595C714.271 443.095 715.234 441.974 716.436 441.233C717.646 440.483 718.972 440.108 720.412 440.108C721.511 440.108 722.428 440.295 723.161 440.67C723.902 441.037 724.499 441.497 724.95 442.051C725.411 442.597 725.76 443.134 725.999 443.662H726.165V433.818H731.598V460H726.229V456.855H725.999C725.743 457.401 725.381 457.942 724.912 458.479C724.452 459.007 723.851 459.446 723.109 459.795C722.376 460.145 721.482 460.32 720.425 460.32ZM722.151 455.986C723.028 455.986 723.77 455.747 724.375 455.27C724.989 454.784 725.457 454.107 725.781 453.237C726.114 452.368 726.28 451.349 726.28 450.182C726.28 449.014 726.118 448 725.794 447.139C725.47 446.278 725.001 445.614 724.388 445.145C723.774 444.676 723.028 444.442 722.151 444.442C721.256 444.442 720.501 444.685 719.888 445.17C719.274 445.656 718.81 446.33 718.494 447.19C718.179 448.051 718.021 449.048 718.021 450.182C718.021 451.324 718.179 452.334 718.494 453.212C718.818 454.081 719.283 454.763 719.888 455.257C720.501 455.743 721.256 455.986 722.151 455.986ZM754.382 440.364L747.517 460H741.381L734.516 440.364H740.269L744.347 454.413H744.551L748.617 440.364H754.382ZM762.241 460.371C760.989 460.371 759.872 460.153 758.892 459.719C757.912 459.276 757.136 458.624 756.565 457.763C756.003 456.893 755.722 455.811 755.722 454.516C755.722 453.425 755.922 452.509 756.322 451.767C756.723 451.026 757.268 450.429 757.959 449.977C758.649 449.526 759.433 449.185 760.311 448.955C761.197 448.724 762.126 448.562 763.098 448.469C764.24 448.349 765.161 448.239 765.859 448.136C766.558 448.026 767.065 447.864 767.381 447.651C767.696 447.437 767.854 447.122 767.854 446.705V446.628C767.854 445.818 767.598 445.192 767.087 444.749C766.584 444.305 765.868 444.084 764.939 444.084C763.959 444.084 763.179 444.301 762.599 444.736C762.02 445.162 761.636 445.699 761.449 446.347L756.412 445.938C756.668 444.744 757.17 443.713 757.92 442.844C758.67 441.966 759.638 441.293 760.822 440.824C762.016 440.347 763.396 440.108 764.964 440.108C766.055 440.108 767.099 440.236 768.097 440.491C769.102 440.747 769.993 441.143 770.768 441.68C771.553 442.217 772.17 442.908 772.622 443.751C773.074 444.587 773.3 445.588 773.3 446.756V460H768.135V457.277H767.982C767.666 457.891 767.244 458.432 766.716 458.901C766.188 459.361 765.553 459.723 764.811 459.987C764.07 460.243 763.213 460.371 762.241 460.371ZM763.801 456.612C764.602 456.612 765.31 456.455 765.923 456.139C766.537 455.815 767.018 455.381 767.368 454.835C767.717 454.29 767.892 453.672 767.892 452.982V450.898C767.722 451.009 767.487 451.111 767.189 451.205C766.899 451.29 766.571 451.371 766.205 451.447C765.838 451.516 765.472 451.58 765.105 451.639C764.739 451.69 764.406 451.737 764.108 451.78C763.469 451.874 762.911 452.023 762.433 452.227C761.956 452.432 761.585 452.709 761.321 453.058C761.057 453.399 760.925 453.825 760.925 454.337C760.925 455.078 761.193 455.645 761.73 456.037C762.276 456.42 762.966 456.612 763.801 456.612ZM782.971 448.648V460H777.525V440.364H782.715V443.828H782.945C783.38 442.686 784.109 441.783 785.131 441.118C786.154 440.445 787.394 440.108 788.852 440.108C790.215 440.108 791.404 440.406 792.418 441.003C793.433 441.599 794.221 442.452 794.783 443.56C795.346 444.659 795.627 445.972 795.627 447.497V460H790.181V448.469C790.19 447.267 789.883 446.33 789.261 445.656C788.638 444.974 787.782 444.634 786.691 444.634C785.958 444.634 785.31 444.791 784.748 445.107C784.194 445.422 783.759 445.882 783.444 446.487C783.137 447.084 782.979 447.804 782.971 448.648ZM808.792 460.384C806.78 460.384 805.05 459.957 803.601 459.105C802.161 458.244 801.053 457.051 800.277 455.526C799.51 454 799.127 452.244 799.127 450.259C799.127 448.247 799.515 446.483 800.29 444.966C801.074 443.44 802.186 442.251 803.627 441.399C805.067 440.538 806.78 440.108 808.766 440.108C810.479 440.108 811.979 440.419 813.266 441.041C814.553 441.663 815.571 442.537 816.321 443.662C817.071 444.787 817.485 446.108 817.561 447.625H812.422C812.277 446.645 811.894 445.857 811.272 445.26C810.658 444.655 809.853 444.352 808.855 444.352C808.012 444.352 807.275 444.582 806.644 445.043C806.022 445.494 805.536 446.155 805.186 447.024C804.837 447.893 804.662 448.946 804.662 450.182C804.662 451.435 804.833 452.5 805.174 453.378C805.523 454.256 806.013 454.925 806.644 455.385C807.275 455.845 808.012 456.075 808.855 456.075C809.478 456.075 810.036 455.947 810.53 455.692C811.033 455.436 811.446 455.065 811.77 454.58C812.103 454.085 812.32 453.493 812.422 452.803H817.561C817.476 454.303 817.067 455.624 816.334 456.766C815.61 457.899 814.608 458.786 813.33 459.425C812.051 460.064 810.539 460.384 808.792 460.384ZM829.997 460.384C827.977 460.384 826.239 459.974 824.781 459.156C823.332 458.33 822.216 457.162 821.432 455.653C820.648 454.136 820.256 452.342 820.256 450.271C820.256 448.251 820.648 446.479 821.432 444.953C822.216 443.428 823.32 442.239 824.743 441.386C826.175 440.534 827.854 440.108 829.78 440.108C831.075 440.108 832.281 440.317 833.398 440.734C834.523 441.143 835.503 441.761 836.338 442.588C837.182 443.415 837.838 444.455 838.307 445.707C838.776 446.952 839.01 448.409 839.01 450.08V451.575H822.429V448.2H833.884C833.884 447.416 833.713 446.722 833.372 446.116C833.031 445.511 832.558 445.038 831.953 444.697C831.357 444.348 830.662 444.173 829.869 444.173C829.043 444.173 828.31 444.365 827.67 444.749C827.04 445.124 826.545 445.631 826.188 446.27C825.83 446.901 825.646 447.604 825.638 448.379V451.588C825.638 452.56 825.817 453.399 826.175 454.107C826.541 454.814 827.057 455.359 827.722 455.743C828.386 456.126 829.175 456.318 830.087 456.318C830.692 456.318 831.246 456.233 831.749 456.062C832.251 455.892 832.682 455.636 833.04 455.295C833.398 454.955 833.67 454.537 833.858 454.043L838.895 454.375C838.639 455.585 838.115 456.642 837.322 457.545C836.538 458.44 835.524 459.139 834.28 459.642C833.044 460.136 831.616 460.384 829.997 460.384ZM849.8 460.32C848.308 460.32 846.957 459.936 845.747 459.169C844.545 458.393 843.591 457.256 842.884 455.756C842.185 454.247 841.835 452.398 841.835 450.207C841.835 447.957 842.197 446.087 842.922 444.595C843.646 443.095 844.609 441.974 845.811 441.233C847.021 440.483 848.347 440.108 849.787 440.108C850.886 440.108 851.803 440.295 852.536 440.67C853.277 441.037 853.874 441.497 854.325 442.051C854.786 442.597 855.135 443.134 855.374 443.662H855.54V433.818H860.973V460H855.604V456.855H855.374C855.118 457.401 854.756 457.942 854.287 458.479C853.827 459.007 853.226 459.446 852.484 459.795C851.751 460.145 850.857 460.32 849.8 460.32ZM851.526 455.986C852.403 455.986 853.145 455.747 853.75 455.27C854.364 454.784 854.832 454.107 855.156 453.237C855.489 452.368 855.655 451.349 855.655 450.182C855.655 449.014 855.493 448 855.169 447.139C854.845 446.278 854.376 445.614 853.763 445.145C853.149 444.676 852.403 444.442 851.526 444.442C850.631 444.442 849.876 444.685 849.263 445.17C848.649 445.656 848.185 446.33 847.869 447.19C847.554 448.051 847.396 449.048 847.396 450.182C847.396 451.324 847.554 452.334 847.869 453.212C848.193 454.081 848.658 454.763 849.263 455.257C849.876 455.743 850.631 455.986 851.526 455.986Z" fill="#F21B3F"/>
<path d="M617.022 548H612.313V533.455H617.171C618.596 533.455 619.82 533.746 620.843 534.328C621.865 534.906 622.649 535.737 623.194 536.821C623.743 537.901 624.017 539.196 624.017 540.706C624.017 542.221 623.74 543.523 623.186 544.612C622.637 545.701 621.842 546.539 620.8 547.126C619.758 547.709 618.499 548 617.022 548ZM614.507 546.082H616.901C618.009 546.082 618.93 545.874 619.664 545.457C620.398 545.036 620.947 544.428 621.311 543.632C621.676 542.832 621.858 541.857 621.858 540.706C621.858 539.565 621.676 538.597 621.311 537.801C620.952 537.006 620.414 536.402 619.699 535.99C618.984 535.578 618.096 535.372 617.036 535.372H614.507V546.082ZM631.278 548.22C630.203 548.22 629.277 547.991 628.501 547.531C627.729 547.067 627.132 546.416 626.711 545.578C626.294 544.735 626.086 543.748 626.086 542.616C626.086 541.499 626.294 540.514 626.711 539.662C627.132 538.81 627.719 538.144 628.472 537.666C629.23 537.188 630.115 536.949 631.129 536.949C631.744 536.949 632.341 537.051 632.918 537.254C633.496 537.458 634.014 537.777 634.474 538.213C634.933 538.649 635.295 539.214 635.56 539.911C635.826 540.602 635.958 541.442 635.958 542.432V543.185H627.286V541.594H633.877C633.877 541.035 633.763 540.54 633.536 540.109C633.309 539.674 632.989 539.33 632.577 539.08C632.17 538.829 631.692 538.703 631.143 538.703C630.546 538.703 630.025 538.85 629.58 539.143C629.14 539.432 628.799 539.811 628.558 540.28C628.321 540.744 628.202 541.248 628.202 541.793V543.036C628.202 543.765 628.33 544.385 628.586 544.896C628.846 545.408 629.209 545.798 629.673 546.068C630.137 546.333 630.679 546.466 631.299 546.466C631.701 546.466 632.068 546.409 632.4 546.295C632.731 546.177 633.018 546.002 633.259 545.77C633.501 545.538 633.685 545.251 633.813 544.911L635.823 545.273C635.662 545.865 635.373 546.383 634.957 546.828C634.545 547.268 634.026 547.612 633.401 547.858C632.781 548.099 632.073 548.22 631.278 548.22ZM646.489 539.754L644.564 540.095C644.484 539.849 644.356 539.615 644.181 539.392C644.01 539.17 643.778 538.987 643.485 538.845C643.191 538.703 642.824 538.632 642.384 538.632C641.783 538.632 641.281 538.767 640.878 539.037C640.476 539.302 640.275 539.645 640.275 540.067C640.275 540.431 640.409 540.725 640.679 540.947C640.949 541.17 641.385 541.352 641.986 541.494L643.719 541.892C644.723 542.124 645.471 542.482 645.963 542.964C646.456 543.447 646.702 544.075 646.702 544.847C646.702 545.5 646.513 546.082 646.134 546.594C645.76 547.1 645.237 547.498 644.564 547.787C643.897 548.076 643.123 548.22 642.242 548.22C641.02 548.22 640.024 547.96 639.252 547.439C638.48 546.913 638.007 546.168 637.831 545.202L639.884 544.889C640.012 545.424 640.275 545.829 640.672 546.104C641.07 546.374 641.588 546.509 642.228 546.509C642.924 546.509 643.48 546.364 643.897 546.075C644.313 545.782 644.522 545.424 644.522 545.003C644.522 544.662 644.394 544.375 644.138 544.143C643.887 543.911 643.501 543.736 642.98 543.618L641.134 543.213C640.116 542.981 639.363 542.612 638.875 542.105C638.392 541.598 638.151 540.957 638.151 540.18C638.151 539.536 638.331 538.973 638.691 538.49C639.051 538.007 639.548 537.631 640.182 537.361C640.817 537.086 641.543 536.949 642.363 536.949C643.542 536.949 644.47 537.205 645.147 537.716C645.824 538.223 646.271 538.902 646.489 539.754ZM653.739 548.22C652.664 548.22 651.738 547.991 650.962 547.531C650.19 547.067 649.593 546.416 649.172 545.578C648.755 544.735 648.547 543.748 648.547 542.616C648.547 541.499 648.755 540.514 649.172 539.662C649.593 538.81 650.18 538.144 650.933 537.666C651.691 537.188 652.576 536.949 653.589 536.949C654.205 536.949 654.802 537.051 655.379 537.254C655.957 537.458 656.475 537.777 656.935 538.213C657.394 538.649 657.756 539.214 658.021 539.911C658.286 540.602 658.419 541.442 658.419 542.432V543.185H649.747V541.594H656.338C656.338 541.035 656.224 540.54 655.997 540.109C655.77 539.674 655.45 539.33 655.038 539.08C654.631 538.829 654.153 538.703 653.604 538.703C653.007 538.703 652.486 538.85 652.041 539.143C651.601 539.432 651.26 539.811 651.018 540.28C650.782 540.744 650.663 541.248 650.663 541.793V543.036C650.663 543.765 650.791 544.385 651.047 544.896C651.307 545.408 651.67 545.798 652.134 546.068C652.598 546.333 653.14 546.466 653.76 546.466C654.162 546.466 654.529 546.409 654.861 546.295C655.192 546.177 655.479 546.002 655.72 545.77C655.962 545.538 656.146 545.251 656.274 544.911L658.284 545.273C658.123 545.865 657.834 546.383 657.418 546.828C657.006 547.268 656.487 547.612 655.862 547.858C655.242 548.099 654.534 548.22 653.739 548.22ZM660.775 537.091H662.899V548.71C662.899 549.439 662.766 550.055 662.501 550.557C662.241 551.059 661.852 551.44 661.336 551.7C660.825 551.961 660.193 552.091 659.44 552.091C659.364 552.091 659.293 552.091 659.227 552.091C659.156 552.091 659.083 552.089 659.007 552.084V550.259C659.073 550.259 659.132 550.259 659.184 550.259C659.232 550.259 659.286 550.259 659.348 550.259C659.85 550.259 660.212 550.124 660.434 549.854C660.662 549.589 660.775 549.203 660.775 548.696V537.091ZM661.826 535.408C661.457 535.408 661.14 535.285 660.875 535.038C660.614 534.787 660.484 534.489 660.484 534.143C660.484 533.793 660.614 533.495 660.875 533.249C661.14 532.998 661.457 532.872 661.826 532.872C662.196 532.872 662.511 532.998 662.771 533.249C663.036 533.495 663.169 533.793 663.169 534.143C663.169 534.489 663.036 534.787 662.771 535.038C662.511 535.285 662.196 535.408 661.826 535.408ZM668.93 548.241C668.239 548.241 667.614 548.114 667.055 547.858C666.497 547.598 666.054 547.221 665.727 546.729C665.405 546.236 665.244 545.633 665.244 544.918C665.244 544.302 665.363 543.795 665.599 543.398C665.836 543 666.156 542.685 666.558 542.453C666.961 542.221 667.411 542.046 667.908 541.928C668.405 541.809 668.911 541.719 669.428 541.658C670.081 541.582 670.611 541.52 671.018 541.473C671.426 541.421 671.722 541.338 671.906 541.224C672.091 541.111 672.183 540.926 672.183 540.67V540.621C672.183 540 672.008 539.52 671.658 539.179C671.312 538.838 670.796 538.668 670.109 538.668C669.394 538.668 668.831 538.826 668.419 539.143C668.012 539.456 667.73 539.804 667.574 540.188L665.578 539.733C665.815 539.07 666.161 538.535 666.615 538.128C667.074 537.716 667.602 537.418 668.199 537.233C668.795 537.044 669.423 536.949 670.081 536.949C670.517 536.949 670.978 537.001 671.466 537.105C671.958 537.205 672.418 537.389 672.844 537.659C673.275 537.929 673.627 538.315 673.902 538.817C674.177 539.314 674.314 539.96 674.314 540.756V548H672.24V546.509H672.155C672.018 546.783 671.812 547.053 671.537 547.318C671.262 547.583 670.91 547.804 670.479 547.979C670.048 548.154 669.532 548.241 668.93 548.241ZM669.392 546.537C669.979 546.537 670.481 546.421 670.898 546.189C671.319 545.957 671.639 545.654 671.857 545.28C672.079 544.901 672.19 544.496 672.19 544.065V542.659C672.115 542.735 671.968 542.806 671.75 542.872C671.537 542.934 671.293 542.988 671.018 543.036C670.744 543.078 670.476 543.118 670.216 543.156C669.955 543.189 669.738 543.218 669.562 543.241C669.151 543.294 668.774 543.381 668.433 543.504C668.097 543.627 667.827 543.805 667.624 544.037C667.425 544.264 667.325 544.567 667.325 544.946C667.325 545.472 667.519 545.869 667.908 546.139C668.296 546.404 668.791 546.537 669.392 546.537ZM690.61 539.754L688.685 540.095C688.605 539.849 688.477 539.615 688.302 539.392C688.131 539.17 687.899 538.987 687.606 538.845C687.312 538.703 686.945 538.632 686.505 538.632C685.904 538.632 685.402 538.767 684.999 539.037C684.597 539.302 684.396 539.645 684.396 540.067C684.396 540.431 684.531 540.725 684.8 540.947C685.07 541.17 685.506 541.352 686.107 541.494L687.84 541.892C688.844 542.124 689.592 542.482 690.085 542.964C690.577 543.447 690.823 544.075 690.823 544.847C690.823 545.5 690.634 546.082 690.255 546.594C689.881 547.1 689.358 547.498 688.685 547.787C688.018 548.076 687.244 548.22 686.363 548.22C685.141 548.22 684.145 547.96 683.373 547.439C682.601 546.913 682.128 546.168 681.952 545.202L684.005 544.889C684.133 545.424 684.396 545.829 684.793 546.104C685.191 546.374 685.71 546.509 686.349 546.509C687.045 546.509 687.601 546.364 688.018 546.075C688.434 545.782 688.643 545.424 688.643 545.003C688.643 544.662 688.515 544.375 688.259 544.143C688.008 543.911 687.622 543.736 687.102 543.618L685.255 543.213C684.237 542.981 683.484 542.612 682.996 542.105C682.513 541.598 682.272 540.957 682.272 540.18C682.272 539.536 682.452 538.973 682.812 538.49C683.172 538.007 683.669 537.631 684.303 537.361C684.938 537.086 685.665 536.949 686.484 536.949C687.663 536.949 688.591 537.205 689.268 537.716C689.945 538.223 690.392 538.902 690.61 539.754ZM696.333 548.241C695.641 548.241 695.016 548.114 694.458 547.858C693.899 547.598 693.456 547.221 693.13 546.729C692.808 546.236 692.647 545.633 692.647 544.918C692.647 544.302 692.765 543.795 693.002 543.398C693.239 543 693.558 542.685 693.961 542.453C694.363 542.221 694.813 542.046 695.31 541.928C695.807 541.809 696.314 541.719 696.83 541.658C697.483 541.582 698.014 541.52 698.421 541.473C698.828 541.421 699.124 541.338 699.309 541.224C699.493 541.111 699.586 540.926 699.586 540.67V540.621C699.586 540 699.41 539.52 699.06 539.179C698.714 538.838 698.198 538.668 697.512 538.668C696.797 538.668 696.233 538.826 695.821 539.143C695.414 539.456 695.132 539.804 694.976 540.188L692.98 539.733C693.217 539.07 693.563 538.535 694.017 538.128C694.477 537.716 695.005 537.418 695.601 537.233C696.198 537.044 696.825 536.949 697.483 536.949C697.919 536.949 698.381 537.001 698.868 537.105C699.361 537.205 699.82 537.389 700.246 537.659C700.677 537.929 701.03 538.315 701.304 538.817C701.579 539.314 701.716 539.96 701.716 540.756V548H699.642V546.509H699.557C699.42 546.783 699.214 547.053 698.939 547.318C698.665 547.583 698.312 547.804 697.881 547.979C697.45 548.154 696.934 548.241 696.333 548.241ZM696.794 546.537C697.382 546.537 697.883 546.421 698.3 546.189C698.721 545.957 699.041 545.654 699.259 545.28C699.481 544.901 699.593 544.496 699.593 544.065V542.659C699.517 542.735 699.37 542.806 699.152 542.872C698.939 542.934 698.695 542.988 698.421 543.036C698.146 543.078 697.879 543.118 697.618 543.156C697.358 543.189 697.14 543.218 696.965 543.241C696.553 543.294 696.176 543.381 695.836 543.504C695.499 543.627 695.23 543.805 695.026 544.037C694.827 544.264 694.728 544.567 694.728 544.946C694.728 545.472 694.922 545.869 695.31 546.139C695.698 546.404 696.193 546.537 696.794 546.537ZM706.668 533.455V548H704.545V533.455H706.668ZM718.858 537.091L714.902 548H712.629L708.666 537.091H710.946L713.708 545.486H713.822L716.578 537.091H718.858ZM723.716 548.241C723.024 548.241 722.399 548.114 721.841 547.858C721.282 547.598 720.839 547.221 720.512 546.729C720.19 546.236 720.029 545.633 720.029 544.918C720.029 544.302 720.148 543.795 720.385 543.398C720.621 543 720.941 542.685 721.343 542.453C721.746 542.221 722.196 542.046 722.693 541.928C723.19 541.809 723.697 541.719 724.213 541.658C724.866 541.582 725.396 541.52 725.804 541.473C726.211 541.421 726.507 541.338 726.691 541.224C726.876 541.111 726.968 540.926 726.968 540.67V540.621C726.968 540 726.793 539.52 726.443 539.179C726.097 538.838 725.581 538.668 724.895 538.668C724.18 538.668 723.616 538.826 723.204 539.143C722.797 539.456 722.515 539.804 722.359 540.188L720.363 539.733C720.6 539.07 720.946 538.535 721.4 538.128C721.859 537.716 722.387 537.418 722.984 537.233C723.581 537.044 724.208 536.949 724.866 536.949C725.302 536.949 725.763 537.001 726.251 537.105C726.743 537.205 727.203 537.389 727.629 537.659C728.06 537.929 728.413 538.315 728.687 538.817C728.962 539.314 729.099 539.96 729.099 540.756V548H727.025V546.509H726.94C726.803 546.783 726.597 547.053 726.322 547.318C726.047 547.583 725.695 547.804 725.264 547.979C724.833 548.154 724.317 548.241 723.716 548.241ZM724.177 546.537C724.764 546.537 725.266 546.421 725.683 546.189C726.104 545.957 726.424 545.654 726.642 545.28C726.864 544.901 726.975 544.496 726.975 544.065V542.659C726.9 542.735 726.753 542.806 726.535 542.872C726.322 542.934 726.078 542.988 725.804 543.036C725.529 543.078 725.261 543.118 725.001 543.156C724.741 543.189 724.523 543.218 724.348 543.241C723.936 543.294 723.559 543.381 723.218 543.504C722.882 543.627 722.612 543.805 722.409 544.037C722.21 544.264 722.11 544.567 722.11 544.946C722.11 545.472 722.305 545.869 722.693 546.139C723.081 546.404 723.576 546.537 724.177 546.537ZM731.928 548V537.091H733.98V538.824H734.094C734.293 538.237 734.643 537.775 735.145 537.439C735.652 537.098 736.224 536.928 736.864 536.928C736.996 536.928 737.152 536.932 737.332 536.942C737.517 536.951 737.661 536.963 737.766 536.977V539.009C737.68 538.985 737.529 538.959 737.311 538.93C737.093 538.897 736.875 538.881 736.658 538.881C736.156 538.881 735.708 538.987 735.315 539.2C734.927 539.409 734.619 539.7 734.392 540.074C734.165 540.443 734.051 540.865 734.051 541.338V548H731.928ZM749.491 548.22C748.469 548.22 747.576 547.986 746.814 547.517C746.052 547.048 745.46 546.393 745.038 545.55C744.617 544.707 744.406 543.722 744.406 542.595C744.406 541.464 744.617 540.474 745.038 539.626C745.46 538.779 746.052 538.121 746.814 537.652C747.576 537.183 748.469 536.949 749.491 536.949C750.514 536.949 751.407 537.183 752.169 537.652C752.931 538.121 753.523 538.779 753.945 539.626C754.366 540.474 754.577 541.464 754.577 542.595C754.577 543.722 754.366 544.707 753.945 545.55C753.523 546.393 752.931 547.048 752.169 547.517C751.407 547.986 750.514 548.22 749.491 548.22ZM749.499 546.438C750.161 546.438 750.711 546.262 751.146 545.912C751.582 545.562 751.904 545.095 752.112 544.513C752.325 543.93 752.432 543.289 752.432 542.588C752.432 541.892 752.325 541.253 752.112 540.67C751.904 540.083 751.582 539.612 751.146 539.257C750.711 538.902 750.161 538.724 749.499 538.724C748.831 538.724 748.277 538.902 747.837 539.257C747.401 539.612 747.077 540.083 746.864 540.67C746.655 541.253 746.551 541.892 746.551 542.588C746.551 543.289 746.655 543.93 746.864 544.513C747.077 545.095 747.401 545.562 747.837 545.912C748.277 546.262 748.831 546.438 749.499 546.438ZM762.24 548V537.091H764.293V538.824H764.406C764.605 538.237 764.955 537.775 765.457 537.439C765.964 537.098 766.537 536.928 767.176 536.928C767.309 536.928 767.465 536.932 767.645 536.942C767.83 536.951 767.974 536.963 768.078 536.977V539.009C767.993 538.985 767.841 538.959 767.624 538.93C767.406 538.897 767.188 538.881 766.97 538.881C766.468 538.881 766.021 538.987 765.628 539.2C765.24 539.409 764.932 539.7 764.705 540.074C764.477 540.443 764.364 540.865 764.364 541.338V548H762.24ZM774.227 548.22C773.152 548.22 772.226 547.991 771.45 547.531C770.678 547.067 770.082 546.416 769.66 545.578C769.243 544.735 769.035 543.748 769.035 542.616C769.035 541.499 769.243 540.514 769.66 539.662C770.082 538.81 770.669 538.144 771.422 537.666C772.179 537.188 773.065 536.949 774.078 536.949C774.693 536.949 775.29 537.051 775.868 537.254C776.445 537.458 776.964 537.777 777.423 538.213C777.882 538.649 778.244 539.214 778.51 539.911C778.775 540.602 778.907 541.442 778.907 542.432V543.185H770.235V541.594H776.826C776.826 541.035 776.713 540.54 776.485 540.109C776.258 539.674 775.939 539.33 775.527 539.08C775.119 538.829 774.641 538.703 774.092 538.703C773.495 538.703 772.975 538.85 772.529 539.143C772.089 539.432 771.748 539.811 771.507 540.28C771.27 540.744 771.152 541.248 771.152 541.793V543.036C771.152 543.765 771.279 544.385 771.535 544.896C771.796 545.408 772.158 545.798 772.622 546.068C773.086 546.333 773.628 546.466 774.248 546.466C774.651 546.466 775.018 546.409 775.349 546.295C775.681 546.177 775.967 546.002 776.208 545.77C776.45 545.538 776.635 545.251 776.762 544.911L778.772 545.273C778.611 545.865 778.323 546.383 777.906 546.828C777.494 547.268 776.975 547.612 776.35 547.858C775.73 548.099 775.022 548.22 774.227 548.22ZM789.438 539.754L787.513 540.095C787.433 539.849 787.305 539.615 787.13 539.392C786.96 539.17 786.728 538.987 786.434 538.845C786.14 538.703 785.773 538.632 785.333 538.632C784.732 538.632 784.23 538.767 783.827 539.037C783.425 539.302 783.224 539.645 783.224 540.067C783.224 540.431 783.359 540.725 783.629 540.947C783.898 541.17 784.334 541.352 784.935 541.494L786.668 541.892C787.672 542.124 788.42 542.482 788.913 542.964C789.405 543.447 789.651 544.075 789.651 544.847C789.651 545.5 789.462 546.082 789.083 546.594C788.709 547.1 788.186 547.498 787.513 547.787C786.846 548.076 786.072 548.22 785.191 548.22C783.969 548.22 782.973 547.96 782.201 547.439C781.429 546.913 780.956 546.168 780.781 545.202L782.833 544.889C782.961 545.424 783.224 545.829 783.621 546.104C784.019 546.374 784.538 546.509 785.177 546.509C785.873 546.509 786.429 546.364 786.846 546.075C787.263 545.782 787.471 545.424 787.471 545.003C787.471 544.662 787.343 544.375 787.087 544.143C786.836 543.911 786.451 543.736 785.93 543.618L784.083 543.213C783.065 542.981 782.312 542.612 781.825 542.105C781.342 541.598 781.1 540.957 781.1 540.18C781.1 539.536 781.28 538.973 781.64 538.49C782 538.007 782.497 537.631 783.131 537.361C783.766 537.086 784.493 536.949 785.312 536.949C786.491 536.949 787.419 537.205 788.096 537.716C788.773 538.223 789.22 538.902 789.438 539.754ZM798.897 543.476V537.091H801.027V548H798.939V546.111H798.826C798.575 546.693 798.172 547.179 797.618 547.567C797.069 547.95 796.385 548.142 795.566 548.142C794.865 548.142 794.245 547.988 793.705 547.68C793.17 547.368 792.748 546.906 792.441 546.295C792.138 545.685 791.986 544.929 791.986 544.03V537.091H794.11V543.774C794.11 544.518 794.316 545.109 794.728 545.55C795.14 545.99 795.675 546.21 796.333 546.21C796.73 546.21 797.126 546.111 797.519 545.912C797.917 545.713 798.246 545.412 798.506 545.01C798.771 544.607 798.901 544.096 798.897 543.476ZM806.004 533.455V548H803.881V533.455H806.004ZM813.953 537.091V538.795H807.995V537.091H813.953ZM809.593 534.477H811.716V544.797C811.716 545.209 811.778 545.519 811.901 545.727C812.024 545.931 812.183 546.071 812.377 546.146C812.576 546.217 812.791 546.253 813.023 546.253C813.194 546.253 813.343 546.241 813.471 546.217C813.598 546.194 813.698 546.175 813.769 546.161L814.152 547.915C814.029 547.962 813.854 548.009 813.627 548.057C813.4 548.109 813.115 548.137 812.775 548.142C812.216 548.152 811.695 548.052 811.212 547.844C810.729 547.635 810.338 547.313 810.04 546.878C809.742 546.442 809.593 545.895 809.593 545.237V534.477ZM819.477 548.241C818.786 548.241 818.161 548.114 817.602 547.858C817.044 547.598 816.601 547.221 816.274 546.729C815.952 546.236 815.791 545.633 815.791 544.918C815.791 544.302 815.91 543.795 816.146 543.398C816.383 543 816.703 542.685 817.105 542.453C817.508 542.221 817.957 542.046 818.455 541.928C818.952 541.809 819.458 541.719 819.974 541.658C820.628 541.582 821.158 541.52 821.565 541.473C821.973 541.421 822.268 541.338 822.453 541.224C822.638 541.111 822.73 540.926 822.73 540.67V540.621C822.73 540 822.555 539.52 822.205 539.179C821.859 538.838 821.343 538.668 820.656 538.668C819.941 538.668 819.378 538.826 818.966 539.143C818.559 539.456 818.277 539.804 818.121 540.188L816.125 539.733C816.362 539.07 816.707 538.535 817.162 538.128C817.621 537.716 818.149 537.418 818.746 537.233C819.342 537.044 819.97 536.949 820.628 536.949C821.063 536.949 821.525 537.001 822.013 537.105C822.505 537.205 822.964 537.389 823.391 537.659C823.821 537.929 824.174 538.315 824.449 538.817C824.723 539.314 824.861 539.96 824.861 540.756V548H822.787V546.509H822.702C822.564 546.783 822.358 547.053 822.084 547.318C821.809 547.583 821.456 547.804 821.026 547.979C820.595 548.154 820.079 548.241 819.477 548.241ZM819.939 546.537C820.526 546.537 821.028 546.421 821.445 546.189C821.866 545.957 822.186 545.654 822.403 545.28C822.626 544.901 822.737 544.496 822.737 544.065V542.659C822.661 542.735 822.515 542.806 822.297 542.872C822.084 542.934 821.84 542.988 821.565 543.036C821.291 543.078 821.023 543.118 820.763 543.156C820.502 543.189 820.285 543.218 820.109 543.241C819.697 543.294 819.321 543.381 818.98 543.504C818.644 543.627 818.374 543.805 818.17 544.037C817.972 544.264 817.872 544.567 817.872 544.946C817.872 545.472 818.066 545.869 818.455 546.139C818.843 546.404 819.338 546.537 819.939 546.537ZM831.773 548.213C830.892 548.213 830.106 547.988 829.415 547.538C828.729 547.084 828.189 546.437 827.796 545.599C827.408 544.757 827.213 543.746 827.213 542.567C827.213 541.388 827.41 540.379 827.803 539.541C828.201 538.703 828.745 538.062 829.436 537.616C830.128 537.171 830.911 536.949 831.787 536.949C832.464 536.949 833.009 537.062 833.421 537.29C833.837 537.512 834.159 537.773 834.387 538.071C834.619 538.369 834.799 538.632 834.926 538.859H835.054V533.455H837.178V548H835.104V546.303H834.926C834.799 546.535 834.614 546.8 834.373 547.098C834.136 547.396 833.809 547.657 833.392 547.879C832.976 548.102 832.436 548.213 831.773 548.213ZM832.242 546.402C832.853 546.402 833.369 546.241 833.79 545.919C834.216 545.592 834.538 545.14 834.756 544.562C834.979 543.985 835.09 543.312 835.09 542.545C835.09 541.788 834.981 541.125 834.763 540.557C834.545 539.989 834.226 539.546 833.804 539.229C833.383 538.911 832.862 538.753 832.242 538.753C831.603 538.753 831.07 538.919 830.644 539.25C830.218 539.581 829.896 540.034 829.678 540.607C829.465 541.179 829.358 541.826 829.358 542.545C829.358 543.275 829.467 543.93 829.685 544.513C829.903 545.095 830.225 545.557 830.651 545.898C831.082 546.234 831.612 546.402 832.242 546.402ZM844.804 548.22C843.781 548.22 842.889 547.986 842.126 547.517C841.364 547.048 840.772 546.393 840.351 545.55C839.929 544.707 839.719 543.722 839.719 542.595C839.719 541.464 839.929 540.474 840.351 539.626C840.772 538.779 841.364 538.121 842.126 537.652C842.889 537.183 843.781 536.949 844.804 536.949C845.827 536.949 846.719 537.183 847.482 537.652C848.244 538.121 848.836 538.779 849.257 539.626C849.679 540.474 849.889 541.464 849.889 542.595C849.889 543.722 849.679 544.707 849.257 545.55C848.836 546.393 848.244 547.048 847.482 547.517C846.719 547.986 845.827 548.22 844.804 548.22ZM844.811 546.438C845.474 546.438 846.023 546.262 846.459 545.912C846.894 545.562 847.216 545.095 847.425 544.513C847.638 543.93 847.744 543.289 847.744 542.588C847.744 541.892 847.638 541.253 847.425 540.67C847.216 540.083 846.894 539.612 846.459 539.257C846.023 538.902 845.474 538.724 844.811 538.724C844.143 538.724 843.589 538.902 843.149 539.257C842.714 539.612 842.389 540.083 842.176 540.67C841.968 541.253 841.864 541.892 841.864 542.588C841.864 543.289 841.968 543.93 842.176 544.513C842.389 545.095 842.714 545.562 843.149 545.912C843.589 546.262 844.143 546.438 844.811 546.438ZM862.254 548.22C861.179 548.22 860.254 547.991 859.477 547.531C858.705 547.067 858.109 546.416 857.688 545.578C857.271 544.735 857.062 543.748 857.062 542.616C857.062 541.499 857.271 540.514 857.688 539.662C858.109 538.81 858.696 538.144 859.449 537.666C860.206 537.188 861.092 536.949 862.105 536.949C862.721 536.949 863.317 537.051 863.895 537.254C864.473 537.458 864.991 537.777 865.45 538.213C865.91 538.649 866.272 539.214 866.537 539.911C866.802 540.602 866.935 541.442 866.935 542.432V543.185H858.263V541.594H864.854C864.854 541.035 864.74 540.54 864.513 540.109C864.286 539.674 863.966 539.33 863.554 539.08C863.147 538.829 862.669 538.703 862.119 538.703C861.523 538.703 861.002 538.85 860.557 539.143C860.116 539.432 859.776 539.811 859.534 540.28C859.297 540.744 859.179 541.248 859.179 541.793V543.036C859.179 543.765 859.307 544.385 859.562 544.896C859.823 545.408 860.185 545.798 860.649 546.068C861.113 546.333 861.655 546.466 862.276 546.466C862.678 546.466 863.045 546.409 863.376 546.295C863.708 546.177 863.994 546.002 864.236 545.77C864.477 545.538 864.662 545.251 864.79 544.911L866.8 545.273C866.639 545.865 866.35 546.383 865.933 546.828C865.521 547.268 865.003 547.612 864.378 547.858C863.758 548.099 863.05 548.22 862.254 548.22ZM869.291 548V537.091H871.329V538.866H871.464C871.691 538.265 872.063 537.796 872.579 537.46C873.095 537.119 873.713 536.949 874.433 536.949C875.162 536.949 875.773 537.119 876.265 537.46C876.762 537.801 877.129 538.27 877.366 538.866H877.48C877.74 538.284 878.154 537.82 878.723 537.474C879.291 537.124 879.968 536.949 880.754 536.949C881.743 536.949 882.551 537.259 883.176 537.879C883.806 538.5 884.12 539.435 884.12 540.685V548H881.997V540.884C881.997 540.145 881.796 539.61 881.393 539.278C880.991 538.947 880.51 538.781 879.951 538.781C879.26 538.781 878.723 538.994 878.339 539.42C877.956 539.842 877.764 540.384 877.764 541.047V548H875.647V540.749C875.647 540.157 875.463 539.681 875.093 539.321C874.724 538.961 874.243 538.781 873.652 538.781C873.249 538.781 872.877 538.888 872.537 539.101C872.2 539.309 871.928 539.6 871.72 539.974C871.516 540.348 871.414 540.782 871.414 541.274V548H869.291ZM892.43 548V533.455H897.615C898.746 533.455 899.684 533.661 900.427 534.072C901.171 534.484 901.727 535.048 902.096 535.763C902.466 536.473 902.65 537.273 902.65 538.163C902.65 539.058 902.463 539.863 902.089 540.578C901.72 541.288 901.161 541.852 900.413 542.268C899.67 542.68 898.734 542.886 897.608 542.886H894.042V541.026H897.409C898.124 541.026 898.704 540.902 899.149 540.656C899.594 540.405 899.921 540.064 900.129 539.634C900.337 539.203 900.441 538.713 900.441 538.163C900.441 537.614 900.337 537.126 900.129 536.7C899.921 536.274 899.592 535.94 899.142 535.699C898.697 535.457 898.109 535.337 897.38 535.337H894.625V548H892.43ZM909.932 548H905.223V533.455H910.081C911.506 533.455 912.73 533.746 913.753 534.328C914.776 534.906 915.559 535.737 916.104 536.821C916.653 537.901 916.928 539.196 916.928 540.706C916.928 542.221 916.651 543.523 916.097 544.612C915.547 545.701 914.752 546.539 913.71 547.126C912.669 547.709 911.409 548 909.932 548ZM907.418 546.082H909.811C910.919 546.082 911.84 545.874 912.574 545.457C913.308 545.036 913.857 544.428 914.222 543.632C914.586 542.832 914.768 541.857 914.768 540.706C914.768 539.565 914.586 538.597 914.222 537.801C913.862 537.006 913.324 536.402 912.609 535.99C911.894 535.578 911.007 535.372 909.946 535.372H907.418V546.082ZM919.657 548V533.455H928.676V535.344H921.851V539.776H928.03V541.658H921.851V548H919.657ZM933.527 543.817V543.682C933.537 542.801 933.624 542.1 933.79 541.58C933.961 541.059 934.202 540.637 934.515 540.315C934.827 539.993 935.203 539.7 935.644 539.435C935.928 539.255 936.184 539.054 936.411 538.831C936.638 538.608 936.818 538.353 936.951 538.064C937.083 537.775 937.15 537.455 937.15 537.105C937.15 536.684 937.05 536.319 936.851 536.011C936.652 535.704 936.387 535.467 936.056 535.301C935.729 535.131 935.364 535.045 934.962 535.045C934.597 535.045 934.249 535.121 933.918 535.273C933.587 535.424 933.312 535.661 933.094 535.983C932.876 536.3 932.751 536.71 932.718 537.212H930.559C930.592 536.359 930.807 535.64 931.205 535.053C931.603 534.461 932.128 534.013 932.782 533.71C933.44 533.407 934.167 533.256 934.962 533.256C935.833 533.256 936.596 533.419 937.249 533.746C937.902 534.068 938.409 534.52 938.769 535.102C939.133 535.68 939.316 536.355 939.316 537.126C939.316 537.657 939.233 538.135 939.067 538.561C938.901 538.982 938.665 539.359 938.357 539.69C938.054 540.022 937.689 540.315 937.263 540.571C936.861 540.822 936.534 541.082 936.283 541.352C936.037 541.622 935.857 541.942 935.743 542.311C935.63 542.68 935.568 543.137 935.559 543.682V543.817H933.527ZM934.6 548.135C934.212 548.135 933.878 547.998 933.598 547.723C933.319 547.444 933.179 547.107 933.179 546.714C933.179 546.326 933.319 545.995 933.598 545.72C933.878 545.441 934.212 545.301 934.6 545.301C934.983 545.301 935.315 545.441 935.594 545.72C935.878 545.995 936.02 546.326 936.02 546.714C936.02 546.975 935.954 547.214 935.821 547.432C935.694 547.645 935.523 547.815 935.31 547.943C935.097 548.071 934.86 548.135 934.6 548.135Z" fill="black"/>
<rect x="621" y="585" width="109" height="60" rx="12" fill="#F21B3F"/>
<path d="M653.802 611.277H650.478C650.35 610.567 650.112 609.942 649.764 609.402C649.416 608.862 648.99 608.404 648.486 608.028C647.981 607.651 647.417 607.367 646.792 607.175C646.174 606.984 645.517 606.888 644.821 606.888C643.564 606.888 642.438 607.204 641.444 607.836C640.456 608.468 639.675 609.395 639.1 610.616C638.532 611.838 638.248 613.33 638.248 615.091C638.248 616.866 638.532 618.365 639.1 619.587C639.675 620.808 640.46 621.732 641.454 622.357C642.449 622.982 643.567 623.294 644.81 623.294C645.499 623.294 646.153 623.202 646.77 623.017C647.395 622.825 647.96 622.545 648.464 622.175C648.969 621.806 649.395 621.355 649.743 620.822C650.098 620.283 650.343 619.665 650.478 618.969L653.802 618.979C653.624 620.052 653.28 621.039 652.768 621.941C652.264 622.836 651.614 623.61 650.819 624.263C650.03 624.91 649.128 625.411 648.113 625.766C647.097 626.121 645.989 626.298 644.789 626.298C642.9 626.298 641.216 625.851 639.739 624.956C638.262 624.054 637.097 622.765 636.245 621.089C635.4 619.413 634.977 617.413 634.977 615.091C634.977 612.761 635.403 610.762 636.256 609.093C637.108 607.417 638.273 606.131 639.75 605.237C641.227 604.335 642.907 603.884 644.789 603.884C645.947 603.884 647.026 604.05 648.028 604.384C649.036 604.711 649.942 605.194 650.744 605.833C651.547 606.465 652.211 607.239 652.736 608.156C653.262 609.065 653.617 610.105 653.802 611.277ZM660.67 604.182V626H657.485V604.182H660.67ZM669.718 626.362C668.681 626.362 667.743 626.17 666.905 625.787C666.067 625.396 665.403 624.832 664.913 624.093C664.43 623.354 664.189 622.449 664.189 621.376C664.189 620.453 664.366 619.693 664.721 619.097C665.077 618.5 665.556 618.028 666.16 617.68C666.763 617.332 667.438 617.069 668.184 616.891C668.93 616.714 669.689 616.579 670.464 616.487C671.444 616.373 672.239 616.281 672.85 616.21C673.461 616.131 673.905 616.007 674.182 615.837C674.459 615.666 674.597 615.389 674.597 615.006V614.931C674.597 614.001 674.334 613.28 673.809 612.768C673.29 612.257 672.516 612.001 671.486 612.001C670.414 612.001 669.569 612.239 668.951 612.715C668.34 613.184 667.917 613.706 667.683 614.281L664.689 613.599C665.045 612.605 665.563 611.803 666.245 611.192C666.934 610.574 667.726 610.126 668.621 609.849C669.515 609.565 670.456 609.423 671.444 609.423C672.097 609.423 672.79 609.501 673.521 609.658C674.26 609.807 674.949 610.084 675.588 610.489C676.234 610.893 676.763 611.472 677.175 612.225C677.587 612.971 677.793 613.94 677.793 615.134V626H674.682V623.763H674.555C674.349 624.175 674.04 624.58 673.628 624.977C673.216 625.375 672.687 625.705 672.04 625.968C671.394 626.231 670.62 626.362 669.718 626.362ZM670.41 623.805C671.291 623.805 672.044 623.631 672.669 623.283C673.301 622.935 673.78 622.481 674.107 621.92C674.441 621.352 674.608 620.744 674.608 620.098V617.989C674.494 618.102 674.274 618.209 673.947 618.308C673.628 618.401 673.262 618.482 672.85 618.553C672.438 618.617 672.037 618.678 671.646 618.734C671.256 618.784 670.929 618.827 670.666 618.862C670.048 618.94 669.483 619.072 668.972 619.256C668.468 619.441 668.063 619.707 667.758 620.055C667.459 620.396 667.31 620.851 667.31 621.419C667.31 622.207 667.601 622.804 668.184 623.209C668.766 623.607 669.508 623.805 670.41 623.805ZM682.036 626V609.636H685.115V612.236H685.285C685.583 611.355 686.109 610.663 686.862 610.158C687.622 609.647 688.481 609.391 689.44 609.391C689.639 609.391 689.873 609.398 690.143 609.413C690.42 609.427 690.637 609.445 690.793 609.466V612.513C690.665 612.477 690.438 612.438 690.111 612.396C689.784 612.346 689.458 612.321 689.131 612.321C688.378 612.321 687.707 612.481 687.118 612.8C686.535 613.113 686.074 613.55 685.733 614.111C685.392 614.665 685.221 615.297 685.221 616.007V626H682.036ZM699.856 626.33C698.322 626.33 696.983 625.979 695.84 625.276C694.697 624.572 693.809 623.589 693.177 622.325C692.545 621.06 692.229 619.583 692.229 617.893C692.229 616.195 692.545 614.711 693.177 613.44C693.809 612.168 694.697 611.181 695.84 610.478C696.983 609.775 698.322 609.423 699.856 609.423C701.39 609.423 702.729 609.775 703.873 610.478C705.016 611.181 705.904 612.168 706.536 613.44C707.168 614.711 707.484 616.195 707.484 617.893C707.484 619.583 707.168 621.06 706.536 622.325C705.904 623.589 705.016 624.572 703.873 625.276C702.729 625.979 701.39 626.33 699.856 626.33ZM699.867 623.656C700.861 623.656 701.685 623.393 702.339 622.868C702.992 622.342 703.475 621.643 703.787 620.769C704.107 619.896 704.267 618.933 704.267 617.882C704.267 616.838 704.107 615.879 703.787 615.006C703.475 614.125 702.992 613.418 702.339 612.886C701.685 612.353 700.861 612.087 699.867 612.087C698.866 612.087 698.035 612.353 697.374 612.886C696.721 613.418 696.234 614.125 695.915 615.006C695.602 615.879 695.446 616.838 695.446 617.882C695.446 618.933 695.602 619.896 695.915 620.769C696.234 621.643 696.721 622.342 697.374 622.868C698.035 623.393 698.866 623.656 699.867 623.656ZM715.056 604.182L714.779 619.725H711.828L711.551 604.182H715.056ZM713.309 626.202C712.719 626.202 712.215 625.996 711.796 625.585C711.377 625.165 711.171 624.661 711.178 624.072C711.171 623.489 711.377 622.992 711.796 622.58C712.215 622.161 712.719 621.952 713.309 621.952C713.884 621.952 714.381 622.161 714.8 622.58C715.219 622.992 715.433 623.489 715.44 624.072C715.433 624.462 715.33 624.821 715.131 625.148C714.939 625.467 714.683 625.723 714.364 625.915C714.044 626.107 713.692 626.202 713.309 626.202Z" fill="white"/>
<rect x="779.25" y="585.75" width="149.5" height="58.5" rx="11.25" stroke="#F21B3F" stroke-width="1.5"/>
<path d="M793.174 626V604.182H796.466V613.663H807.343V604.182H810.646V626H807.343V616.487H796.466V626H793.174ZM822.077 626.33C820.543 626.33 819.204 625.979 818.061 625.276C816.917 624.572 816.029 623.589 815.397 622.325C814.765 621.06 814.449 619.583 814.449 617.893C814.449 616.195 814.765 614.711 815.397 613.44C816.029 612.168 816.917 611.181 818.061 610.478C819.204 609.775 820.543 609.423 822.077 609.423C823.611 609.423 824.95 609.775 826.093 610.478C827.237 611.181 828.125 612.168 828.757 613.44C829.389 614.711 829.705 616.195 829.705 617.893C829.705 619.583 829.389 621.06 828.757 622.325C828.125 623.589 827.237 624.572 826.093 625.276C824.95 625.979 823.611 626.33 822.077 626.33ZM822.088 623.656C823.082 623.656 823.906 623.393 824.559 622.868C825.213 622.342 825.696 621.643 826.008 620.769C826.328 619.896 826.488 618.933 826.488 617.882C826.488 616.838 826.328 615.879 826.008 615.006C825.696 614.125 825.213 613.418 824.559 612.886C823.906 612.353 823.082 612.087 822.088 612.087C821.086 612.087 820.255 612.353 819.595 612.886C818.941 613.418 818.455 614.125 818.135 615.006C817.823 615.879 817.667 616.838 817.667 617.882C817.667 618.933 817.823 619.896 818.135 620.769C818.455 621.643 818.941 622.342 819.595 622.868C820.255 623.393 821.086 623.656 822.088 623.656ZM833.26 609.636H836.446V627.065C836.446 628.159 836.247 629.082 835.849 629.835C835.459 630.588 834.876 631.16 834.102 631.55C833.335 631.941 832.387 632.136 831.258 632.136C831.144 632.136 831.037 632.136 830.938 632.136C830.831 632.136 830.721 632.133 830.608 632.126V629.388C830.707 629.388 830.796 629.388 830.874 629.388C830.945 629.388 831.027 629.388 831.119 629.388C831.872 629.388 832.415 629.185 832.749 628.781C833.09 628.383 833.26 627.804 833.26 627.044V609.636ZM834.837 607.112C834.283 607.112 833.807 606.927 833.41 606.558C833.019 606.181 832.824 605.734 832.824 605.215C832.824 604.69 833.019 604.242 833.41 603.873C833.807 603.496 834.283 603.308 834.837 603.308C835.391 603.308 835.863 603.496 836.254 603.873C836.652 604.242 836.851 604.69 836.851 605.215C836.851 605.734 836.652 606.181 836.254 606.558C835.863 606.927 835.391 607.112 834.837 607.112ZM847.784 626.33C846.172 626.33 844.783 625.986 843.618 625.297C842.461 624.601 841.566 623.624 840.934 622.367C840.309 621.103 839.996 619.622 839.996 617.925C839.996 616.249 840.309 614.771 840.934 613.493C841.566 612.214 842.446 611.217 843.576 610.499C844.712 609.782 846.04 609.423 847.56 609.423C848.483 609.423 849.378 609.576 850.245 609.881C851.111 610.187 851.889 610.666 852.578 611.32C853.267 611.973 853.81 612.822 854.208 613.866C854.605 614.903 854.804 616.163 854.804 617.648V618.777H841.797V616.391H851.683C851.683 615.553 851.512 614.81 851.172 614.164C850.831 613.511 850.351 612.996 849.733 612.619C849.123 612.243 848.405 612.055 847.581 612.055C846.686 612.055 845.905 612.275 845.238 612.715C844.577 613.148 844.066 613.717 843.703 614.42C843.348 615.116 843.171 615.872 843.171 616.689V618.553C843.171 619.647 843.363 620.577 843.746 621.344C844.137 622.112 844.68 622.697 845.376 623.102C846.072 623.5 846.885 623.699 847.816 623.699C848.419 623.699 848.97 623.614 849.467 623.443C849.964 623.266 850.394 623.003 850.756 622.655C851.118 622.307 851.395 621.877 851.587 621.366L854.602 621.909C854.36 622.797 853.927 623.575 853.302 624.242C852.684 624.903 851.907 625.418 850.969 625.787C850.039 626.149 848.977 626.33 847.784 626.33ZM869.463 616.284V626H866.278V609.636H869.336V612.3H869.538C869.914 611.433 870.504 610.737 871.306 610.212C872.116 609.686 873.135 609.423 874.364 609.423C875.479 609.423 876.456 609.658 877.294 610.126C878.132 610.588 878.782 611.277 879.243 612.193C879.705 613.109 879.936 614.242 879.936 615.592V626H876.75V615.975C876.75 614.789 876.441 613.862 875.824 613.195C875.206 612.52 874.357 612.183 873.277 612.183C872.539 612.183 871.882 612.342 871.306 612.662C870.738 612.982 870.287 613.45 869.953 614.068C869.627 614.679 869.463 615.418 869.463 616.284ZM888.97 626.362C887.933 626.362 886.995 626.17 886.157 625.787C885.319 625.396 884.655 624.832 884.165 624.093C883.682 623.354 883.441 622.449 883.441 621.376C883.441 620.453 883.618 619.693 883.973 619.097C884.328 618.5 884.808 618.028 885.412 617.68C886.015 617.332 886.69 617.069 887.436 616.891C888.181 616.714 888.941 616.579 889.716 616.487C890.696 616.373 891.491 616.281 892.102 616.21C892.713 616.131 893.157 616.007 893.434 615.837C893.711 615.666 893.849 615.389 893.849 615.006V614.931C893.849 614.001 893.586 613.28 893.061 612.768C892.542 612.257 891.768 612.001 890.738 612.001C889.666 612.001 888.821 612.239 888.203 612.715C887.592 613.184 887.169 613.706 886.935 614.281L883.941 613.599C884.297 612.605 884.815 611.803 885.497 611.192C886.186 610.574 886.978 610.126 887.873 609.849C888.767 609.565 889.708 609.423 890.696 609.423C891.349 609.423 892.042 609.501 892.773 609.658C893.512 609.807 894.201 610.084 894.84 610.489C895.486 610.893 896.015 611.472 896.427 612.225C896.839 612.971 897.045 613.94 897.045 615.134V626H893.934V623.763H893.806C893.6 624.175 893.292 624.58 892.88 624.977C892.468 625.375 891.939 625.705 891.292 625.968C890.646 626.231 889.872 626.362 888.97 626.362ZM889.662 623.805C890.543 623.805 891.296 623.631 891.921 623.283C892.553 622.935 893.032 622.481 893.359 621.92C893.693 621.352 893.86 620.744 893.86 620.098V617.989C893.746 618.102 893.526 618.209 893.199 618.308C892.88 618.401 892.514 618.482 892.102 618.553C891.69 618.617 891.289 618.678 890.898 618.734C890.507 618.784 890.181 618.827 889.918 618.862C889.3 618.94 888.735 619.072 888.224 619.256C887.72 619.441 887.315 619.707 887.01 620.055C886.711 620.396 886.562 620.851 886.562 621.419C886.562 622.207 886.853 622.804 887.436 623.209C888.018 623.607 888.76 623.805 889.662 623.805ZM887.659 607.655L885.518 607.591C885.518 606.412 885.834 605.471 886.466 604.768C887.105 604.065 887.894 603.713 888.831 603.713C889.265 603.713 889.645 603.788 889.971 603.937C890.298 604.079 890.603 604.246 890.887 604.438C891.179 604.622 891.466 604.789 891.75 604.938C892.042 605.08 892.365 605.151 892.72 605.151C893.132 605.151 893.466 604.995 893.721 604.683C893.984 604.37 894.115 603.983 894.115 603.521L896.214 603.66C896.214 604.846 895.895 605.78 895.255 606.462C894.616 607.136 893.831 607.477 892.901 607.484C892.397 607.484 891.978 607.413 891.644 607.271C891.317 607.122 891.026 606.955 890.77 606.771C890.515 606.579 890.252 606.408 889.982 606.259C889.712 606.11 889.389 606.036 889.012 606.036C888.615 606.036 888.288 606.192 888.032 606.504C887.784 606.81 887.659 607.193 887.659 607.655ZM908.181 626.33C906.646 626.33 905.308 625.979 904.164 625.276C903.021 624.572 902.133 623.589 901.501 622.325C900.869 621.06 900.553 619.583 900.553 617.893C900.553 616.195 900.869 614.711 901.501 613.44C902.133 612.168 903.021 611.181 904.164 610.478C905.308 609.775 906.646 609.423 908.181 609.423C909.715 609.423 911.053 609.775 912.197 610.478C913.34 611.181 914.228 612.168 914.86 613.44C915.492 614.711 915.808 616.195 915.808 617.893C915.808 619.583 915.492 621.06 914.86 622.325C914.228 623.589 913.34 624.572 912.197 625.276C911.053 625.979 909.715 626.33 908.181 626.33ZM908.191 623.656C909.186 623.656 910.009 623.393 910.663 622.868C911.316 622.342 911.799 621.643 912.112 620.769C912.431 619.896 912.591 618.933 912.591 617.882C912.591 616.838 912.431 615.879 912.112 615.006C911.799 614.125 911.316 613.418 910.663 612.886C910.009 612.353 909.186 612.087 908.191 612.087C907.19 612.087 906.359 612.353 905.698 612.886C905.045 613.418 904.558 614.125 904.239 615.006C903.926 615.879 903.77 616.838 903.77 617.882C903.77 618.933 903.926 619.896 904.239 620.769C904.558 621.643 905.045 622.342 905.698 622.868C906.359 623.393 907.19 623.656 908.191 623.656Z" fill="#F21B3F"/>
<rect x="194" y="599" width="174" height="14" rx="7" fill="#A6A6A6"/>
<path d="M-259.849 132.984C-307.068 135.306 -449.532 92.7541 -514.861 71.1879C-552.34 22.0781 -580.773 -144.998 -394.67 -420.426C-208.567 -695.854 -85.2902 -614.178 -46.9146 -538.911C-21.0529 -466.617 30.2642 -299.966 28.6399 -211.705C26.6094 -101.378 -200.825 130.083 -259.849 132.984Z" fill="#F21B3F"/>
</g>
<defs>
<filter id="filter0_f_1_4" x="706" y="378" width="1320" height="1320" filterUnits="userSpaceOnUse" color-interpolation-filters="sRGB">
<feFlood flood-opacity="0" result="BackgroundImageFix"/>
<feBlend mode="normal" in="SourceGraphic" in2="BackgroundImageFix" result="shape"/>
<feGaussianBlur stdDeviation="240" result="effect1_foregroundBlur_1_4"/>
</filter>
<clipPath id="clip0_1_4">
<rect width="1440" height="6526" fill="white" transform="translate(-179 -812)"/>
</clipPath>
</defs>
</svg>
